<?xml version="1.0" standalone="no"?>
<!DOCTYPE svg PUBLIC "-//W3C//DTD SVG 20010904//EN"
 "http://www.w3.org/TR/2001/REC-SVG-20010904/DTD/svg10.dtd">
<svg version="1.0" xmlns="http://www.w3.org/2000/svg"
 width="752.000000pt" height="752.000000pt" viewBox="0 0 752.000000 752.000000"
 preserveAspectRatio="xMidYMid meet">
<metadata>
Created by potrace 1.11, written by Peter Selinger 2001-2013
</metadata>
<g transform="translate(0.000000,752.000000) scale(0.100000,-0.100000)"
fill="#000000" stroke="none">
<path d="M3873 7508 c-4 -7 -8 -15 -9 -18 0 -3 -6 -25 -14 -50 -16 -54 -17
-59 -23 -85 -3 -11 -12 -47 -21 -80 -59 -229 -75 -514 -40 -699 2 -12 9 -46
15 -76 7 -30 12 -61 12 -67 0 -7 5 -13 10 -13 6 0 8 -3 4 -6 -3 -3 -1 -18 5
-33 5 -14 11 -33 13 -41 2 -8 11 -35 20 -60 9 -25 18 -52 20 -60 14 -59 148
-344 210 -445 13 -22 27 -48 31 -57 3 -10 10 -18 15 -18 5 0 9 -5 9 -12 0 -10
158 -236 185 -264 5 -6 21 -26 35 -44 23 -31 77 -97 90 -110 4 -4 104 -119
145 -167 5 -6 145 -148 310 -315 165 -167 319 -325 342 -353 42 -50 91 -112
106 -130 71 -93 227 -329 227 -343 0 -6 4 -12 8 -14 5 -1 30 -43 57 -93 26
-49 53 -96 59 -104 6 -8 10 -16 9 -18 -2 -1 15 -41 37 -88 22 -47 40 -89 40
-93 0 -4 7 -20 15 -35 19 -38 90 -256 110 -342 9 -38 18 -78 21 -87 9 -39 12
-55 18 -102 4 -27 9 -52 11 -55 2 -4 6 -35 10 -71 3 -36 10 -94 14 -130 9 -67
6 -467 -3 -530 -3 -19 -7 -55 -10 -80 -3 -25 -8 -56 -10 -70 -14 -86 -19 -109
-27 -145 -5 -22 -11 -49 -13 -60 -11 -54 -64 -218 -101 -310 -4 -11 -10 -29
-12 -39 -2 -11 -10 -27 -18 -36 -8 -9 -15 -22 -15 -28 0 -14 -93 -186 -145
-267 -114 -178 -319 -397 -480 -513 -81 -59 -116 -82 -122 -82 -3 0 -14 -6
-22 -14 -27 -24 -220 -120 -321 -160 -52 -21 -104 -42 -115 -46 -24 -10 -90
-31 -113 -35 -9 -2 -17 -4 -17 -5 0 -1 -7 -3 -15 -5 -40 -11 -187 -47 -205
-51 -56 -11 -73 -14 -105 -19 -19 -3 -46 -7 -60 -10 -14 -3 -50 -7 -80 -10
-30 -3 -62 -7 -70 -10 -34 -9 -292 -25 -420 -26 -101 0 -271 8 -306 15 -12 2
-45 7 -75 11 -30 3 -61 8 -69 10 -8 2 -28 7 -45 10 -47 8 -67 12 -141 30 -103
25 -297 86 -311 97 -7 6 -13 8 -13 4 0 -5 -53 14 -130 47 -14 6 -27 11 -30 12
-42 10 -241 127 -305 179 -27 23 -58 48 -68 56 -20 16 -78 75 -134 137 -39 44
-142 193 -168 243 -67 131 -89 182 -124 287 -63 189 -93 372 -93 563 0 178 9
263 52 470 27 131 92 361 109 385 4 6 16 33 26 60 73 203 253 492 415 669 138
152 372 341 535 433 61 35 192 95 202 94 2 0 18 6 38 15 69 29 225 55 341 58
92 3 254 -13 306 -30 13 -4 30 -8 38 -9 41 -4 174 -48 231 -75 39 -18 69 -11
69 15 0 27 -134 127 -254 190 -260 137 -538 179 -846 130 -85 -14 -252 -67
-355 -115 -122 -56 -140 -64 -150 -72 -5 -5 -52 -34 -104 -64 -52 -31 -99 -60
-105 -65 -6 -5 -50 -38 -98 -74 -117 -87 -117 -87 -223 -192 -51 -51 -130
-139 -174 -195 -45 -57 -86 -108 -91 -115 -6 -7 -10 -14 -10 -17 0 -2 -22 -37
-50 -78 -27 -40 -50 -78 -50 -85 0 -6 -3 -13 -7 -15 -5 -1 -26 -39 -48 -83
-22 -44 -42 -82 -45 -85 -23 -23 -162 -411 -175 -489 -3 -19 -8 -38 -11 -43
-6 -9 -6 -11 -36 -176 -18 -105 -22 -162 -21 -327 0 -110 3 -216 6 -235 3 -19
9 -53 13 -75 18 -116 78 -317 125 -423 74 -168 202 -379 282 -464 19 -21 32
-38 29 -38 -3 0 46 -49 108 -110 62 -60 117 -110 121 -110 4 0 14 -6 21 -13 7
-7 29 -24 48 -37 19 -13 37 -27 40 -31 28 -38 373 -209 451 -224 11 -2 24 -7
30 -11 6 -4 25 -10 43 -15 17 -4 83 -22 146 -39 96 -25 273 -68 355 -86 11 -2
31 -6 45 -9 14 -3 43 -8 64 -10 21 -3 42 -7 46 -10 3 -2 28 -6 56 -10 27 -3
85 -10 129 -15 170 -21 249 -25 520 -24 309 0 467 7 660 30 33 4 71 8 85 9 14
2 45 6 70 10 25 4 54 9 65 10 125 17 396 91 550 151 98 39 294 134 336 165 15
10 30 19 33 19 13 0 177 119 256 186 149 125 326 328 415 474 22 36 50 79 61
97 62 94 170 339 229 523 36 113 41 130 51 180 3 14 9 41 14 60 5 19 12 49 14
65 3 17 8 41 11 55 8 38 27 151 31 185 15 128 18 199 18 405 1 212 -5 339 -19
425 -2 17 -7 46 -9 65 -10 70 -46 237 -71 325 -14 50 -27 99 -30 109 -5 23
-52 149 -70 191 -22 50 -44 105 -45 110 -1 12 -136 265 -166 313 -19 29 -34
55 -34 58 0 10 -140 209 -231 328 -90 118 -321 359 -438 456 -29 25 -59 50
-65 55 -6 6 -54 46 -106 90 -52 44 -100 84 -106 90 -7 5 -29 24 -49 40 -21 17
-43 35 -49 40 -26 23 -163 141 -185 160 -51 43 -359 353 -411 414 -30 35 -60
69 -65 75 -35 38 -187 259 -221 321 -6 11 -21 38 -34 60 -37 65 -120 233 -120
243 0 5 -7 22 -14 38 -17 33 -62 207 -71 274 -3 25 -8 56 -10 71 -4 24 -17
213 -16 234 4 85 3 187 -2 191 -3 3 -3 16 1 28 15 44 3 86 -23 86 -8 0 -17 -6
-22 -12z"/>
<path d="M3128 3385 c-3 -3 -12 -8 -20 -9 -51 -9 -118 -70 -144 -131 -20 -47
-20 -50 -29 -430 -11 -437 -21 -683 -41 -1050 -23 -429 -23 -427 41 -502 93
-109 257 -114 355 -12 63 66 66 85 85 464 3 61 7 151 10 200 11 199 20 455 30
825 3 140 8 293 9 340 3 107 -7 151 -45 206 -41 60 -104 95 -182 101 -34 3
-65 2 -69 -2z"/>
<path d="M4555 3371 c-127 -31 -200 -145 -184 -285 10 -83 29 -277 34 -351 21
-272 26 -892 11 -1145 -11 -182 -11 -191 3 -235 22 -63 67 -112 129 -141 49
-22 66 -25 119 -21 68 7 91 17 141 62 42 37 72 94 77 145 14 137 19 302 20
655 0 435 -8 637 -39 940 -2 17 -6 59 -10 95 -12 116 -27 158 -73 206 -23 25
-57 51 -75 58 -43 18 -115 26 -153 17z"/>
</g>
</svg>
