<?xml version="1.0" standalone="no"?>
<!DOCTYPE svg PUBLIC "-//W3C//DTD SVG 20010904//EN"
 "http://www.w3.org/TR/2001/REC-SVG-20010904/DTD/svg10.dtd">
<svg version="1.0" xmlns="http://www.w3.org/2000/svg"
 width="128.000000pt" height="128.000000pt" viewBox="0 0 128.000000 128.000000"
 preserveAspectRatio="xMidYMid meet">
<metadata>
Created by potrace 1.11, written by Peter Selinger 2001-2013
</metadata>
<g transform="translate(0.000000,128.000000) scale(0.100000,-0.100000)"
fill="#000000" stroke="none">
<path d="M10 963 c0 -10 128 -388 227 -670 l15 -43 64 0 63 0 -121 359 -122
359 -63 4 c-45 2 -63 -1 -63 -9z"/>
<path d="M220 972 l-26 -3 98 -291 c54 -160 100 -293 103 -296 4 -4 74 -6 116
-3 12 1 31 44 69 154 29 83 55 158 60 166 6 12 20 -23 104 -264 l21 -60 63 2
c35 1 65 3 66 5 2 2 30 84 64 183 34 99 79 230 100 292 l38 111 -63 4 c-35 2
-63 3 -63 2 0 -10 -133 -381 -139 -387 -5 -5 -12 3 -15 20 -4 15 -24 75 -45
133 l-39 105 -88 0 -88 0 -46 -132 c-25 -73 -47 -133 -50 -133 -3 0 -35 87
-71 193 l-66 192 -39 5 c-21 3 -50 4 -64 2z"/>
<path d="M1180 972 c-24 -3 -32 -23 -147 -362 l-122 -360 64 0 63 0 15 42 c63
179 227 663 227 668 0 9 -63 16 -100 12z"/>
</g>
</svg>
