<?xml version="1.0" encoding="utf-8"?>
<!-- Generator: Adobe Illustrator 23.0.1, SVG Export Plug-In . SVG Version: 6.00 Build 0)  -->
<svg version="1.1" id="Слой_1" xmlns="http://www.w3.org/2000/svg" xmlns:xlink="http://www.w3.org/1999/xlink" x="0px" y="0px"
	 viewBox="0 0 550 175" style="enable-background:new 0 0 550 175;" xml:space="preserve">
<style type="text/css">
	.st0{fill:#F37B03;}
	.st1{font-family:'Appetite';}
	.st2{font-size:67.6488px;}
	.st3{fill:#FFC31F;}
	.st4{fill:#F7AA47;}
	.st5{fill:#9A8879;}
	.st6{fill:#D19563;}
	.st7{fill:#FFE099;}
	.st8{fill:#EF7F1A;}
	.st9{fill:#FFFFFF;}
	.st10{font-family:'Mansalva';}
	.st11{font-size:22px;}
</style>
<text transform="matrix(1.2788 0 0 1 143.2407 86.8383)" class="st0 st1 st2">ПЕКАРНЯ</text>
<g transform="translate(0.000000,1062.000000) scale(0.100000,-0.100000)">
	<g id="XMLID_1_">
		<g>
			<path class="st3" d="M1173.8,10087.5c26.3-55.5,23.4-125.2-7.8-193.6c-4.8-10.4-15.1-28.4-21.4-37.1
				c-12.2-16.9-33.9-39.7-41.4-43.3l-4.2-2l-12.5,2.9c-6.8,1.6-14.3,3.1-16.7,3.3c-2.5,0.3-6.3,0.9-8.7,1.1l-4.3,0.5l4.1,4.6
				c11.2,12.4,14.7,28.3,11.7,52.1c-1.4,11.5-3.2,17.7-8.4,29.1c-2.6,5.6-4.5,10.4-4.1,10.7c0.3,0.3,9.4-0.7,20.3-2
				c23.9-3.2,37-3.2,41.3,0c6.1,4.7,0.4,9.1-13.8,10.6c-23.3,2.4-40.2,3.7-47.4,3.7c-8.9,0-8.5-0.3-12.6,7.5
				c-1.6,2.8-6.1,10.6-10.2,17.2c-10.9,17.8-10.4,16.1-4.2,15.3c25.5-3.4,75.1-5.5,89.4-3.7c9.3,1.2,15,3.2,15,5.3
				c0,1.9-5.1,4.7-11,5.8c-6.4,1.2-78.9,4.7-94.9,4.5l-11.5-0.2l-2.2,2.6c-1.2,1.4-2.2,2.9-2.2,3.3c0,0.4,4.9,6.5,11,13.7
				c5.9,7.1,11.9,14.3,13.1,16.1l2.2,3.2l12.6-0.7c25.2-1.2,43.6-2.4,57.2-3.9c16.7-1.9,32.3-1.5,36.6,0.9
				c9.2,4.9,3.9,8.7-16.4,11.9c-2.8,0.5-21.9,1.2-42.3,1.9c-20.4,0.6-37.3,1.1-37.5,1.3c-0.3,0.3,15.3,20.7,23.7,31.3
				c2.8,3.4,5.8,6.5,6.7,6.8c1,0.3,11-0.4,22.4-1.4c34.4-3.2,36.7-3,34.8,2.4c-2.1,6.2-11,8.7-33.9,9.6c-9.1,0.3-16.7,0.9-17.1,1.1
				c-0.3,0.4-0.1,2.4,0.4,4.7c2.2,9.6,0.9,17.9-4.1,25.3l-3.2,4.7l7.2,8.5c3.9,4.7,10.4,12.4,14.4,17c8.2,9.6,7.2,9.3,17.3,5.6
				c6.2-2.2,19.5-11.2,25.9-17.4C1153.6,10121.5,1167.9,10099.9,1173.8,10087.5z"/>
			<path class="st4" d="M286.1,9886.1c0-0.5-0.5-2.9-1-5.3c-0.6-2.4-1.9-12.4-3.2-22.1c-1.2-9.6-2.6-17.9-3.1-18.3
				c-2.1-2.2-44.9-13.6-47.3-12.6c-4.9,1.9,9.2,26.2,22.5,38.8c6.2,5.8,14,11.4,23.8,16.6C285,9887.2,286.1,9887.6,286.1,9886.1z"/>
			<path class="st4" d="M345.4,9907.3c4.2-1.2,6.1-5.3,5.3-10.7c-0.8-4.8-15.4-64.5-18.3-74.1c-2.3-7.8-3.7-8.6-14.2-7.7
				c-9.2,0.8-13.6,2.6-20.1,8.7l-5.1,4.8l0.1,12.4c0.2,17.5,4.4,39.5,10.7,55.9c3,7.6,5.4,10.1,11.9,12.5c4.2,1.5,6.3,1.6,17.6,0.3
				C338.2,9908.7,343.7,9907.9,345.4,9907.3z"/>
			<path class="st4" d="M412.3,9846.7l4.2-8.4l-1.6-3.2c-3.5-7.6-8-13.9-10.4-14.9c-4.8-1.9-23.9-5.6-39.3-7.5
				c-8.5-1-15.6-2.1-16.1-2.4c-1.3-0.9-0.9,15.4,0.7,23.8c0.8,4.4,3.1,14.2,5.1,21.9c12.6,47.3,12.5,46.6,8.9,57.9
				c-0.7,1.9-0.1,2.3,4.3,4.5c4.6,2.1,5.6,2.3,13.8,1.8c4.8-0.3,11.5-1,14.9-1.5c7.9-1.2,12.1-3.2,12.1-5.8c0-1.1-1-5.9-2-10.8
				c-1.5-6.8-2-12-2-22.3C404.6,9864.1,405.6,9860,412.3,9846.7z"/>
			<path class="st4" d="M454.6,10011.3c3.2-7.5,3.2-7.7-3.8-16.5c-8.5-10.9-20.6-30.9-29.6-48.6c-4.9-9.9-9.3-17.5-9.9-17.3
				c-0.6,0.2-3.9,1-7.5,1.7c-3.5,0.7-6.8,1.6-7.3,2c-0.4,0.4,1.6,8.7,4.4,18.3c7.5,25.9,9.4,37.5,9.4,56.2c0,15.6-0.8,19.5-3.7,19.5
				c-3.4,0-6.8-11.2-10.2-33.6c-2.5-16.1-4.9-27-10.3-47l-3.3-12.3l-4.3-0.6c-2.2-0.3-5.5-0.6-7.2-0.6c-5.6,0-11.3-2.7-16.4-7.9
				l-4.9-5l-7.5,1c-4.1,0.5-12.1,1-17.8,1c-16.8,0.1-24-3.1-29.5-13.2c-2.7-5-5.6-6.8-9.7-6c-11,1.9-32.9,18.6-46.2,35.2
				c-26.6,32.9-36.3,76.5-22.6,102.2c8.9,16.9,30.5,26.6,67.3,30.4c9.9,1.1,42.5,0.6,56.3-0.9c42.2-4.4,78.4-15.4,99.1-30.5
				C443.1,10036,447,10028.8,454.6,10011.3z M350.6,9985.6c4.9,20.3,5.8,51.7,1.6,54.3c-0.4,0.3-1.6-0.1-2.6-0.9
				c-3.1-2.1-5.8-9.9-9.1-26.7c-1.8-8.8-5.1-23.7-7.4-33.2c-7.9-33-9.8-45.8-7-46.4c2.4-0.5,6.8,3.9,9.8,9.7
				C339.4,9949,347.2,9972.2,350.6,9985.6z"/>
			<path class="st5" d="M830.1,10131.8c7.1-2,9.3-3.2,9.3-4.7c0-1.1-1.2-1.3-7.6-0.9c-9.5,0.6-17.5,3.4-20.7,7.4
				c-4.1,4.8-7.5,12.8-5.6,12.8c0.3,0,2.5-1,4.9-2.2c2.4-1.2,6.9-4.3,9.9-6.8C823.5,10135,827.9,10132.5,830.1,10131.8z"/>
			<path class="st5" d="M800.3,10124.7c0-3.9-11.5,1.4-18.5,8.7c-8.3,8.5-15.6,24.7-18.3,40l-0.7,4.1l2.8-1.5
				c1.6-0.9,4.8-3.2,7.1-5.2c7.6-6.5,13.4-13.9,18.3-23.3C795.9,10137.8,800.3,10127,800.3,10124.7z"/>
			<path class="st5" d="M750.5,10176.3c8.5-9.4,16.4-32.8,13.8-40c-1-2.3-1-2.3-6.1,3.1c-5.8,6.1-10.3,14.5-11.7,22
				c-1.1,6.1-1.2,18.7-0.1,18.7C746.8,10180,748.6,10178.3,750.5,10176.3z"/>
			<path class="st5" d="M740.8,10156.8c0-2.3-0.5-5.9-1-8l-1-3.6l-2.1,2.4c-4.8,5.6-8.7,22.1-7.5,31.8c0.7,4.8,0.9,5,2.4,4.1
				c1-0.7,2.6-2.7,3.6-4.6C737.7,10174.4,740.8,10162.2,740.8,10156.8z"/>
			<path class="st5" d="M716.6,10184.7c3.5-3.8,5-8.6,4.4-14c-1-8.5-4.6-12.4-10.2-11.4c-2.5,0.5-2.5,0.7-2.5,7.6
				c0,6.7,1.4,18.2,2.4,19.8C711.6,10188.2,714.1,10187.3,716.6,10184.7z"/>
			<path class="st5" d="M703.7,10186.5c0.5,0,0.6-1.9,0.3-4.4c-1.8-13.9-5.2-24.5-8.8-26.4c-1.6-0.9-1.8-0.6-1.8,2
				C693.4,10164.2,701.4,10186.5,703.7,10186.5z"/>
			<path class="st5" d="M693.4,10184.7c0.5,0,1-0.5,1-1c0-4-10-25.4-16.5-35.2c-2.9-4.3-10.1-10.3-12.4-10.3s7.5,22.1,14.1,31.7
				C683.8,10176.2,691.7,10184.7,693.4,10184.7z"/>
			<path class="st5" d="M671.2,10180.9c1.9,0,1.9-0.3,1.4-4.4c-1.3-9.6-7.2-18.8-22-34.2c-4.8-5.1-10.2-11-11.8-13
				c-3-3.6-2.9-3.4,1.5,6.5c7.6,17.4,9.5,20.6,19.8,33.9C668.5,10180.5,669,10180.9,671.2,10180.9z"/>
			<path class="st5" d="M640.6,10163.3c0.6,0,0.6-1.3,0.3-3c-2.4-11-23-38.1-32.7-43.4c-2.7-1.4-2.7-0.6,0.1,3.5
				c1.2,1.9,6.2,9.6,11.2,17.2C627.6,10150.1,638.4,10163.3,640.6,10163.3z"/>
			<path class="st5" d="M602.5,10130.8c-0.9-3.3-5.8-8.2-11.4-11.2c-7.3-3.8-14-4.2-17.4-1l-2.3,2.1l6.3,1.5
				c6.8,1.7,19.3,6.6,22.2,8.8C602.5,10132.9,603.1,10132.9,602.5,10130.8z"/>
			<path class="st6" d="M797.8,9707.7c2-1.8,2-6.5,0.1-9.4c-1.9-2.8-6.8-4.8-11.6-4.8h-3.9l0.6,3.3c1,5.4,3.6,10,7.1,11.7
				C793.3,9710.3,795.1,9710.1,797.8,9707.7z"/>
			<path class="st6" d="M616.9,9693.4c3.9-3.2,5.2-12.8,2.6-19.1c-1.7-3.9-2.8-4.9-5.8-4.9c-3.6,0-5.2,3.8-5.7,14
				c-0.6,11.6-0.2,12.5,4.1,11.8C614,9694.9,616.1,9694,616.9,9693.4z"/>
			<path class="st6" d="M1099.8,9787.5v-3.9l-17.4,0.9c-9.6,0.4-24.3,0.8-32.6,0.8c-13,0-15.4-0.3-16.7-1.7
				c-1.2-1.1-1.3-1.9-0.6-2.6c0.6-0.6,8.3-2.2,17.2-3.7c8.8-1.5,21.3-3.9,27.7-5.4c6.4-1.6,13.2-3.1,15.2-3.4c2.2-0.4,3.4-1.1,3.4-2
				c0-3.4-16.2-92.6-19.6-108.3c-1-4.3-1.1-4.5-6-6c-9.1-2.8-9.7-6.7-1.4-7.5c2.6-0.2,4.8-0.8,4.8-1.1c0-0.4-0.3-1.9-0.6-3.5
				l-0.6-2.8l-15.7-0.4c-9.9-0.2-16.1-0.8-16.7-1.4c-2-2,0.8-4.3,9-7.3c12.5-4.6,19-7.7,19-9.3c0-4.3-10.1-5.8-46.1-7
				c-14.8-0.5-30.3-1.1-34.4-1.4c-9.3-0.7-110.5,1-179.9,2.9c-76.1,2.1-153.5,2.6-237,1.4c-73.9-1.1-113.2-2.2-129.5-3.8
				c-42.7-4.1-51.8-5.2-72.5-8.9c-15-2.7-17.9-2.8-19.7-0.6c-1.9,2.1-1.9,2.5-6.3,20.5c-5.1,21.6-5.1,20.9,2.3,24.4
				c9.4,4.2,7.8,7.5-2.7,5.8c-3.2-0.6-5.8-0.9-6-0.7c-0.2,0.2-0.7,2.2-1,4.6l-0.7,4.2l5.2,1.5c6.8,1.9,16.7,4.1,19.3,4.1
				c2,0,4.7,3.2,3.2,4.1c-0.4,0.2-6.8,1.3-14.1,2.4c-7.5,1-14.3,2.1-15.4,2.3c-1.7,0.4-2.1,1.6-3.2,7.6c-0.6,4-1.7,8.9-2.3,11
				c-0.8,2-1.5,5.2-1.9,7.1c-0.5,3.1-0.3,3.4,2,4.4c4.5,1.8,10.5,2.8,23.1,3.9c16.4,1.4,24.7,2.5,25.7,3.4c0.4,0.4,0.4,1.3,0,1.9
				c-1.2,1.9-22.1,4.8-39.4,5.5c-8.7,0.3-15.6,0.7-15.6,0.9c0,0.1-1.5,6.7-3.3,14.5c-4.8,20.4-9.6,44.5-9.6,47.3
				c0,2,0.7,2.8,3.6,3.9c11.9,4.8,44.6,7.6,114.9,10c16.9,0.6,30.8,1.1,30.9,1.2c0.6,0.5,12.2-0.7,15.5-1.5c3.5-0.9,6.8-3.6,10-8.4
				c1-1.4,4.3-3.5,7.9-5c5.9-2.5,7-2.7,18.9-2.6c20.2,0.3,39.7,4,49.2,9.6c7.4,4.4,11.7,5.2,21.4,3.9c4.5-0.6,12.5-2.2,17.9-3.7
				c20-5.6,53-10.7,98.5-15.4c25.6-2.6,33.1-3.9,46.2-7.9c13.5-4.2,20.3-3.6,40.3,3l8.7,2.9l19.6-1.1c10.8-0.7,31.5-1.4,46.2-1.7
				c23.9-0.5,28.2-0.3,43.3,1.6c9.4,1.1,18.7,1.9,21.3,1.5c2.7-0.3,7.3-1.9,11.5-4.4c9.6-5.3,12.2-5,30.4,3.5
				c7.7,3.6,16.4,7.3,19.5,8.2c3.1,0.9,12.5,5.2,20.9,9.6l15.4,8.1l27.9-0.1c28.7,0,40.3-1.1,48.4-4.6
				C1099.5,9791.4,1099.8,9791,1099.8,9787.5z M1029.1,9657.3v26.7c0,25.3-0.1,26.9-1.9,30.8c-4.1,8.4-14,11.5-22.9,7.3
				c-2.6-1.2-5.5-3.3-6.4-4.8c-1.6-2.4-1.6-2.5,1.3-5c4.7-4.3,5.1-8,4.6-32.8l-0.6-22.1h12.9L1029.1,9657.3L1029.1,9657.3z
				 M1013.7,9728c12.4,0,18.8,9.9,11.6,18.1c-4.1,4.8-10.5,6.2-17.4,4c-4.3-1.3-8.6-6.5-8.6-10.2
				C999.4,9733.1,1005.5,9728,1013.7,9728z M991.9,9658.3v31.5v31.5l-5.8,1c-7.5,1.4-31.2,2-37.9,1.1c-2.8-0.4-6.7-1-8.6-1.4
				c-4-0.8-3.7,0.1-5.5-17.8c-1.7-17.8-6.1-32-11.7-37.8c-3-3.1-2.3-5.5,2.3-8.7c2.7-1.9,4.6-2.3,8.8-2.3c6.9,0,10.7,1.7,14.5,6.1
				c5,6.1,6.2,11.8,9,42l0.6,5.8h4.6h4.6v-25.6v-25.6h12.5L991.9,9658.3L991.9,9658.3z M915.9,9657.3l-0.6,22.5
				c-0.4,12.4-0.7,26.8-0.7,32.1v9.6l-14.6-0.3l-14.7-0.3l-5.6-10.9c-3.1-6-6-11.4-6.6-11.9c-0.8-0.8-2.6,2.5-6.7,11.2l-5.8,12.1
				h-13.3h-13.4l-0.6-15.5c-0.8-19.9-3.2-30.1-9.6-40.4c-1.6-2.4-1.6-2.6,0.7-4.9c3.3-3.6,6.8-5.1,11.6-5.1c11.8,0,18.3,8.7,19.8,27
				l0.7,7.8l6.4-16l6.3-16.1h3c2.9,0,2.9,0,10.8,18.5l7.9,18.5l-0.3-19l-0.4-19h12.7h12.8V9657.3z M809.6,9683.7
				c10.2,3.5,15.7,13,13,22.7c-1.6,5.8-8.9,13.2-15.3,15.4c-5.6,1.9-16.3,2.6-21.5,1.5c-28.4-6-37.8-40-16.6-59.4
				c7.4-6.6,13.5-8.7,24.2-8.3c9.8,0.5,15.4,2.9,22.1,9.5c4.4,4.3,7.7,10.1,6.8,11.6c-0.3,0.6-2.8-0.1-5.5-1.4
				c-7.3-3.3-15.4-4.6-20.7-3.2c-5.2,1.4-9.1,4-10.9,7.4l-1.3,2.5h10.4C801.9,9682,805.9,9682.4,809.6,9683.7z M753.3,9724.3
				c0.2,13.8-8.7,22.4-26.4,25.7c-8.7,1.6-16.4,1.5-24.1-0.2c-12.6-2.7-20.8-8.7-22.9-16.9c-1.9-7.4,0.1-13.8,5.4-16.9
				c3.6-2.2,11.6-2.5,15.5-0.5c2.6,1.3,2.8,1.9,2.8,6.8c0,6,1.2,8.9,4.8,11.6c5.2,3.8,12.6,1.5,15.9-5c4.9-9.6-1.2-18.3-12.9-18.4
				l-4-0.1v-6.9v-6.8l4.8-0.7c6.4-0.9,9.6-3,11.9-7.5c2.1-4.5,2.3-7.7,0.6-11.9c-3.5-8.4-14.1-10-18.9-2.9c-1.1,1.8-1.7,4.5-1.7,8.5
				c-0.1,7.6-1.3,8.9-9,9.4c-10.4,0.6-15.9-4.5-15.8-14.2c0-5.8,1.7-9.4,6.3-13.5c11.6-10.2,37.5-11.8,54.3-3.2
				c19.2,9.6,20.1,33.7,1.5,41.8l-4.7,2l3.2,1C748,9708.4,753.2,9715.5,753.3,9724.3z M613,9655.2c18.2,0.1,31.4,11.7,31.3,27.2
				c0,7.1-1.7,11.6-6.2,16.6c-5.2,5.8-11.4,8-21.6,7.9h-8.7v7.3v7.3h-12.6h-12.6l0.4-23c0.3-22,0.4-23.3,2.5-28
				C590,9660.4,599.6,9655.1,613,9655.2z M575.3,9658.3v31.5v31.5l-5.8,1.1c-6.1,1.1-31.1,2-35.2,1.3c-1.3-0.2-5.1-0.9-8.6-1.4
				l-6.2-1l-0.6-6.1c-1.9-20.9-4.8-35.2-8.5-42.2c-0.8-1.4-2.6-4-4.2-5.8c-3.1-3.6-2.9-4.8,1.4-8.8c4.7-4.4,16.1-3.8,21.6,1
				c6.5,5.8,8.8,13.5,10.7,36.4l1.1,13.7h4.6h4.5v-25.6v-25.6h12.5H575.3z M499,9657.3v26.7c0,25.3-0.1,26.9-1.9,30.8
				c-1.1,2.2-3.4,5-5.5,6.3c-4,2.6-11.2,3.6-15.4,2c-3.9-1.4-7.7-4.3-8.9-6.6c-1-1.7-0.8-2.2,1.2-3.8c4.8-4,4.9-4.8,4.8-31
				l-0.2-24.5h13H499L499,9657.3z M483.8,9728c11.9,0,18.5,10.1,11.5,18c-4,4.7-10.6,6.2-17.3,4.3c-1.7-0.5-4.3-2.3-5.8-4.1
				C465,9738,471.4,9728,483.8,9728z M465,9674.4c2,3.9,3.2,8.9,2,8.9c-0.2,0-2.5-1.5-5.2-3.2c-15.3-10.3-33.4-6.8-40.9,7.9
				c-7.1,13.9-5.4,33.8,3.7,43c4.3,4.3,7.5,5.2,11.8,3.2c3.9-1.9,5.8-6.1,5.8-13c0-6.1,1.4-7.3,9-7.5c7.7-0.1,13.2,5.1,14,13.1
				c1.1,11.1-7.6,19.9-22.9,23.1c-6.7,1.4-11.4,1.5-17.8,0.4c-9.5-1.7-16.4-5.4-23.4-12.5c-8.1-8.1-13.8-22.3-13.8-34.4
				c0-18.5,11.2-37.1,26.6-44.3c6.1-3,6.9-3.1,17.6-3.1c10.7,0,11.5,0.1,17.2,3C455.8,9662.3,461.5,9667.9,465,9674.4z"/>
			<path class="st6" d="M795.3,9820.1c4.1-1.9,4.3-2,3.7-4.9c-0.4-1.7-1.7-4.8-3.1-6.7c-4.8-7.2-18.8-22.6-22.1-24.2
				c-10.6-5-22.9-1.1-22.9,7.3c0.1,7.5,10.2,24.3,16.7,27.5c2,1,5.3,2.3,7.2,2.8C780.2,9823.2,790.4,9822.3,795.3,9820.1z"/>
			<path class="st6" d="M1127.9,10199.9c0-3.4-0.7-5.3-3.2-8.7c-4.7-6.8-52.3-59.2-56.4-62.2l-2.5-1.8l-6.3,5.7
				c-4.1,3.6-6.2,6.1-5.9,7.2c0.5,1.9,28.1,42,35.5,51.6c15.5,20,22.3,24,32.1,19.1C1126.1,10208.2,1127.9,10205.3,1127.9,10199.9z"
				/>
			<path class="st6" d="M1072.6,10101.6c2.1-4.2,1-7.9-5.1-17.7c-10.3-16.4-14.1-21.2-60.2-75c-7.2-8.4-17.6-20.4-23.1-26.9
				c-5.5-6.4-17.7-20.4-26.9-31.2c-37.9-44.1-62.7-71.4-64-70.6c-0.5,0.3-3,3.8-5.6,7.8c-9.7,15.3-24.6,25.7-44.5,31.2
				c-4.8,1.4-9,2.6-9.2,2.8c-1,1,3.2,7.5,10.7,16.7c33.9,42,65.3,80.5,72.4,88.7c4.6,5.4,10.2,12.1,12.5,14.9
				c19.2,23.7,80.4,89.5,86.9,93.4c4.3,2.6,10.8,3.1,15.6,1C1039.7,10133.7,1069.3,10107.9,1072.6,10101.6z"/>
			<path class="st7" d="M880.6,9875.7c3.7-6.2,4.6-11.5,2-12.5c-1.9-0.8-9.7,4.7-18.3,12.6c-4.5,4.1-8.3,6.8-10,7.2
				c-1.6,0.4-2.9,0.3-2.9-0.2c0.1-0.5,2.6-3.7,5.7-7.4c20.5-23.9,21.6-25.3,19.4-29.2c-0.8-1.4-1.9-1.9-4.2-1.9
				c-2.8,0-4.3,1.1-11.8,8.7c-4.8,4.8-10.5,9.6-12.8,10.8c-5.1,2.6-10,3.8-10.8,2.7c-1-1.6,3.7-7.8,13.4-17.8
				c10.3-10.6,12.6-14.7,11.3-19.6c-1-3.7-3.4-6.2-6-6.2c-2.1,0-4.1,1.8-15.2,14.4c-5.1,5.8-12.2,11.6-14.2,11.6
				c-0.4,0-0.8-1.2-0.8-2.7c0-3.7,6.2-12.7,15.5-22.6c8.5-8.8,9.4-11.5,5.8-15.8c-5.4-7-24.5-9.7-29.8-4.4c-1,1-1.8,2.5-1.8,3.5
				c0,1.5,1,1.9,7,2.4c6.3,0.6,7,0.9,7,2.7c0,1.5-1.9,3.2-7.2,6.8c-9.2,6-11.9,7.4-21.7,10.7c-17.2,5.8-33.7,6.8-62.8,3.5
				c-9.2-1-24.3-2.3-33.5-2.8c-9.2-0.6-17.4-1.1-18.2-1.4c-1.3-0.4-67-7.6-87.9-9.6c-5.6-0.6-17.4-1-26.2-1h-15.9l-1,3.1
				c-3.5,10.6-5.4,32.1-3.9,43.7c2.3,17.2,15.4,47.5,22.7,52.3c1.3,0.8,4.1,1.8,6.3,2.2c5.8,1.2,25.5,1.2,34,0
				c4-0.5,27.5-4.3,52.4-8.3c78.9-12.9,75.1-12.5,100-11.2c11.8,0.6,27.2,1.9,34.4,3c23.6,3.4,49.5,1.1,59.5-5.5
				C865.9,9893.9,876.7,9882.2,880.6,9875.7z M632.3,9901.8c3.7,3.7,5.4,6,5,7c-1,2.7-4.6,1.6-8.5-2.6c-5.9-6.4-10-13.9-10.6-19.3
				c-0.4-3.6-0.2-4.7,0.8-4.3c0.8,0.2,1.6,1,1.9,1.8C625,9893.3,627.5,9897.1,632.3,9901.8z M601.5,9902.2
				c11.8,11.8,14.2,16.4,7.3,13.9c-4.2-1.5-16.6-16-20.8-24.2c-2.5-5.1-3.4-12.8-1.3-12.2c1.2,0.5,1.5,1,5.3,9.4
				C594,9893.7,596.5,9897.2,601.5,9902.2z"/>
			<path class="st7" d="M949.7,10186.8c1.7-4,1.7-11.8-0.1-15.2c-3.2-6-12.3-10.2-22.3-10.2h-6v4.3c0,3.7,0.5,4.8,3.5,7.8
				c3.1,3,4.2,3.5,9.4,4c6.2,0.7,10.3,2.5,10.3,4.8c0,0.7-1.1,2.1-2.5,3.2c-2.2,1.8-3.3,1.9-7.6,1.5c-13-1.6-16.5-3.9-23.6-15.9
				l-3.9-6.5l-1-23.7c-0.9-18.8-1.5-25.4-3.1-31.8c-8.9-35.3-35.4-75.1-61.2-92.1c-16.8-11.1-43.8-21.2-72.8-27.2
				c-27.3-5.8-79.5-1.2-107.4,9.3c-19.2,7.2-60.1,33.3-84.7,54c-18.8,15.8-27.5,26.6-32.8,40.3c-5.1,13.3-6.1,20.2-6.1,39.6
				c0.1,15.7,0.4,19,2.7,29.8c1.4,6.7,2.8,15.1,3.1,18.6c0.5,6,0.4,6.8-1.7,9c-3.1,3.3-15.4,7.3-23,7.3c-6.3,0-7.4-0.9-6.3-4.9
				c0.6-2.3,1.2-2.7,10.6-6.8c3.2-1.4,6.2-3.2,6.7-4.2c1.3-2.4,1.1-7.9-0.4-11.5c-1.6-3.6-5.4-5.1-13.6-5.1c-6.9,0-11.1,2.2-14,7.5
				c-3.2,5.8-3.3,17.9-0.2,24.4c2.7,5.5,8.3,11.3,13.4,13.9c5.7,2.9,15.4,2.2,22.9-1.7c2.9-1.6,6.9-3.1,8.8-3.4
				c3.3-0.7,3.9-0.4,7.1,2.9c2.2,2.4,5.7,8.7,10,18.3c12,26.2,20.4,38.5,29.3,43.1c15,7.5,68.3,17.7,107.2,20.3
				c12.1,0.8,54.4-0.3,66-1.7c44-5.3,86.2-17.7,111.7-32.7c15.4-9.1,20.1-15.6,22.4-31.1c2.5-17.6,3.9-23.5,5.8-25.5
				c1.7-1.8,3.1-1.9,15.2-1.9C939.5,10197.1,946.4,10194.6,949.7,10186.8z M882,10147.9c0.5,17-0.4,20.5-5.6,23.7
				c-7.5,4.6-15.8,1.3-22.7-8.9c-5.8-8.6-7.2-9.2-18.8-9.2c-8.7,0-10.8,0.4-16.6,2.6c-9.3,3.6-16.2,8.1-29.3,18.9
				c-6.3,5.1-13.5,10.7-15.9,12.4c-10,6.9-21.8,10.6-37.1,11.8c-4.6,0.4-8.2,1-8.2,1.2c0,1.2-3.8,4.8-5,4.8c-0.7,0-2.9-1.5-4.9-3.2
				c-4.8-4-9-4.4-12.7-1c-3.7,3.4-3.5,7.4,1,24.3c1.8,6.8,3.2,12.9,3.2,13.8c0,2.9-2.7,1.5-7.5-3.8c-7.3-8.2-10.5-15.7-11-25.7
				c-0.5-9.7-0.2-9.4-14-14c-18.4-6.2-36.1-16.8-51.7-31c-19.9-18.1-24.6-22-29.9-25c-3.1-1.8-6.3-3.2-7.2-3.2
				c-0.9,0-4.3,3.2-7.6,7.4c-7,8.4-9.8,10.1-14.8,8.5c-3.3-1.1-8.2-6.2-9.7-10.5c-1.6-4.2-2.2-13.1-1.1-17.1
				c1.5-5.6,9.1-13.5,16.2-17c9.9-4.8,16.8-5.9,35.1-5.9c14.2,0,17.6,0.3,26.5,2.4c18.4,4.3,31.6,9.9,53.9,22.9
				c6.6,3.8,15.5,8.6,19.8,10.6c9,4.2,7.3,4.7,19.8-4.8c3.8-2.9,8.7-6.3,10.7-7.6c5.8-3.5,20.1-9.4,34.4-14
				c46.6-15,80.9-12.5,100.5,7.5C880.6,10127.4,881.6,10130.1,882,10147.9z M838.3,10230.9c3.4,2.3,2.4,3.6-3.6,4.8
				c-3.1,0.5-9.3,2.6-13.7,4.7c-9,4.1-14.1,4.9-21.5,3.7c-6.3-1.1-12.8-3.9-16.1-7.1c-3.1-2.9-3.2-4.1-1-6.1
				c2.3-2.1,6.2-1.9,12.8,0.4c4.1,1.4,7.2,1.8,12.1,1.6c6.3-0.3,7.2-0.7,16.1-6.1c13.9-8.5,17.4-8.7,14.2-0.8
				C836.4,10229.5,836.4,10229.7,838.3,10230.9z M727.8,10112.1c5.1,3.6,7.4,11.2,3.4,11.9c-0.9,0.2-2.9-0.8-4.4-2
				c-3.5-2.9-11.7-4.7-18.3-3.8c-3,0.4-7.5,1.9-11,3.8l-5.9,3.1l-1.5-1.9c-1.9-2.9-1.8-3.7,1.2-6.6
				C699.1,10108.9,719.9,10106.5,727.8,10112.1z M653.3,10237.7c5.8-2.4,8.5-1.9,8.5,1.5c0,2.9-7,10-11.7,12
				c-3.9,1.6-16.1,1.6-21.8,0c-6.3-1.9-8.5-2.9-12.5-6c-1.9-1.6-5.2-3.2-7.1-3.8c-4.4-1.2-6.6-3.4-4.6-4.8c0.8-0.5,2-0.9,3-0.9
				c1.5,0,1.5-0.2,0.2-2.9c-1.2-2.2-1.3-3.2-0.4-4.2c2.2-2.7,5.9-1.5,11.8,3.7c6.9,6.1,10.2,7.4,21,7.4
				C646.3,10239.8,649.4,10239.3,653.3,10237.7z"/>
			<path class="st8" d="M496.3,10052.6l2.7-7.9l-2.5-1.8c-1.5-1-8.7-7.8-16.1-15.2s-14-13.3-14.5-13.3c-1.9,0-63.7,121.2-77.8,152.5
				c-21.3,47.3-36.7,84.2-44.1,105.1c-3.8,10.8-4.4,13.6-4.5,20c0,8.6,2.2,17.1,5.6,21.7c3.2,4.1,8,4.1,16.3,0
				c11.9-5.9,27-24.2,46.2-55.3c4.9-8.1,11.6-19.8,14.8-26l5.9-11.4l-8.7-8.7c-9.6-9.6-14.6-17.9-14.6-24.2c0-4.2,1.8-5.3,5.3-3.4
				c2.8,1.5,11.8,12.5,17.3,21c2,3.2,4.2,5.6,4.7,5.2c1-0.6,8.8-17,11.9-24.7l1.7-4.4l-7.3-7.3c-11.1-11-15.9-19.9-14.5-26.4
				c1.4-6,5.4-3.1,17.9,13.6c3.9,5.1,7.4,9.4,7.7,9.6c1.2,0.5,15.8-35.1,15.8-38.5c0-0.7-2.2-3.4-4.9-6.1
				c-9.6-9.5-15.6-21.2-13.7-26.3c0.5-1.3,1.5-2.3,2.3-2.3c2.2,0,8.7,6.4,14.9,14.8c3.1,4.2,5.8,7.5,6.2,7.5
				c0.7,0,12.8-30.6,12.8-32.2c0-0.6-1.6-3.1-3.5-5.6c-8.9-11.5-15.4-25.5-14.9-32.7c0.2-2.4,0.9-4.4,1.5-4.7
				c1.9-0.7,7.6,6.2,14,16.8c3.2,5.5,6.4,10.3,7.1,10.9C488.6,10074,490.4,10070,496.3,10052.6z M401.7,10252.3
				c1.8,3.4,1.8,4.1,0.7,4.8c-2.1,1.3-4.8,1-8.6-1c-1.9-1-4.7-3.4-6.2-5.3c-4.6-5.5-7-16.1-3.6-16.1
				C387.6,10234.8,398.2,10245.3,401.7,10252.3z"/>
			<path class="st8" d="M530.3,10085.1l3.4-11.5l-2.8-2.4c-1.5-1.3-5.8-5-9.6-8.2c-5.6-4.9-7-5.7-7.9-4.7c-0.8,0.7-3,5.4-5.1,10.5
				c-12.4,29.5-21.8,50.7-30.7,69.3c-20.1,41.9-37.5,90.6-44.7,125.1c-2.5,12.2-3.1,30.8-1,37.8c2.8,9.6,8.5,11.5,18.8,6.2
				c12.1-6,21.1-19,45.3-64.5c5.2-9.6,9.6-18.4,10-19.3c0.4-1.1-0.6-2.8-3.1-5.6c-5.3-5.7-8.4-11.5-10.3-18.9
				c-1.2-4.7-2.9-8.1-6.1-12.5c-7.6-10.1-10.6-18.4-7.8-21.2c2-2,4-1.2,9.1,4l5,5.1l3-6.3c1.6-3.4,4.8-8.6,7.2-11.5
				c2.4-2.9,4.4-5.6,4.4-5.9c0-0.5-1.7-3.3-3.6-6.4c-4.2-6.4-8.3-17.7-8.7-23.9c-0.3-3.5,0-4.1,1.6-4.4c1.5-0.2,4.1,3.1,12.6,15.8
				c9.8,14.8,11,16.1,13.2,15.8l2.5-0.3v-16.9C525.1,10108.7,526.2,10099.5,530.3,10085.1z M483.9,10232.8c1,3.9-3.1,5-9,2.4
				c-6.5-2.8-12.3-9.9-13.9-17.3c-1.2-5.4-0.6-7.3,2.4-7.3C467.7,10210.7,482.2,10226.5,483.9,10232.8z"/>
			<path class="st8" d="M1054.2,10231.6c0-23.2-3.2-44.5-11.2-73.1l-3-10.8l-5.2,1.2c-2.9,0.8-8.1,1.3-11.5,1.3
				c-5.7,0-6.7-0.3-11.4-3.4c-9.6-6.6-20.1-15.3-25.3-21.2c-2.8-3.2-6.5-6.8-8.2-7.7c-3.5-2.1-23.5-5.8-31.9-5.8
				c-12.7,0-19.9-3.1-19.9-8.5c0-5.8,7.1-8,22.6-6.7c9.2,0.8,9.6,0.7,8.6-0.9c-2.1-3.2-23.8-26.8-24.5-26.8c-0.4,0-2.7,1.8-5.1,4
				l-4.4,3.9l-0.3,32.4c-0.2,37.4-1.5,33.1,11,38c13.5,5.5,18.3,8.4,22,13.2c4.3,5.6,5.9,11.3,5.9,19.2
				c-0.1,10.9-3.8,17.3-12.5,21.4c-2.6,1.2-4.8,2.7-4.8,3.3c0,0.6,1.9,4.8,4.2,9.3c10.8,21.6,43.2,57.1,61.5,67.9
				c5.9,3.5,16,6.9,20.6,6.9c2.1,0,5.3-0.6,7-1.3C1049.3,10283.1,1054.2,10265.4,1054.2,10231.6z M1025.8,10202.8l0.1,3.7l-4.7,0.2
				c-3.5,0.1-8-1-19.1-4.9c-21.7-7.6-22.1-7.8-25.1-10.3c-1.7-1.4-2.8-3.2-2.8-4.5c0-2.9,4-3.7,14.3-3c13.6,1,26.3,5.4,32.7,11.2
				C1025,10198.5,1025.7,10199.6,1025.8,10202.8z M985.2,10147.3c21.1,4.4,27.8,7.7,26.9,13.3c-0.8,5.1-9.6,5.7-23.5,1.7
				c-5.1-1.6-14.5-3.8-20.9-5.1c-12.6-2.6-18-4.7-18.4-7.3C948.4,10145,967.5,10143.6,985.2,10147.3z"/>
			<path class="st9" d="M966.3,9811.1c5.3-10.7,5.6-14,1.2-18.4c-3.2-3.2-10.7-6-16.2-6c-2.7,0-3.5,0.8-8.1,7.3
				c-9.9,13.9-38.7,63.2-38.7,66c0,1,18.8,19.7,19.7,19.7c0.5,0,2-1.8,3.6-3.9C932.5,9869.3,961.5,9820.3,966.3,9811.1z"/>
			<path class="st9" d="M592.2,9952.8c0.4-1.9-0.7-3.1-7-7.7c-26.9-19.8-44.3-45.9-50.4-75.7c-3.6-17-3.3-45.3,0.5-59.9
				c1-4.1,1.9-7.5,1.9-7.5c0-0.7-8.2-2.4-14.9-3.2c-22.1-2.7-25.3-0.6-30.2,19.7c-4.4,17.8-4,33.2,1,49.1
				c2.9,9.2,13.8,31.1,20.4,40.8c8.1,12,15.4,20.7,30.7,36c15.2,15.3,19.1,18.6,24.4,20.4c4.2,1.5,7.6,1,13.4-1.9
				C587.2,9960.1,591.7,9955.7,592.2,9952.8z"/>
			<path class="st7" d="M907,9814.5c4.7-11.3,1.6-17.1-10.5-20.4c-8.7-2.3-51.5-5.8-51.5-4.2c0,0.5,3.3,4.2,7.5,8.3
				c4.3,4.2,10.8,12.3,15.1,18.6c10.2,15.1,18.2,24.7,20.3,24.7c0.4,0,2.1-1.6,4-3.6C896.7,9832.4,904.6,9820.1,907,9814.5z"/>
			<path class="st7" d="M747.2,9815.8c0.2-0.1-1.3-4.7-3.2-10c-5.1-14.8-3.9-13.9-21.5-14.3c-28.3-0.7-81.5,4.3-88.6,8.2
				c-1.9,1.1,3.9,2.5,21.6,5.1C681.9,9808.6,746.2,9816.4,747.2,9815.8z"/>
			<path class="st9" d="M1049.6,9875.7c0-16.6-8.5-32.7-22.2-41.9c-14.7-9.7-31.9-16.4-39.5-15.2c-5.1,0.8-11,4.3-14.2,8.6
				c-1.6,1.9-9,13.5-16.6,25.7c-7.6,12.2-16.1,25.1-18.8,28.8c-4.8,6.4-4.8,6.5-3.2,8.7c1,1.1,14,17,28.9,35.3
				c28.8,35,37.7,45.2,39.7,45.2c0.7,0,3.5-3.1,6.3-6.7C1030.4,9936.5,1049.6,9893.9,1049.6,9875.7z"/>
			<path class="st9" d="M920.8,10055.4c1.2-1.9-82.2-98.6-84.9-98.6c-0.4,0-1.6,1.5-2.7,3.2c-5.3,8.1-19.6,11-28.5,5.8
				c-6.5-3.8-9.5-8.8-9.5-16c0-9.6,6.4-17.6,15.3-19l3.3-0.6l0.3-5.7c0.3-6.8,1.9-6-17-8.5c-18.3-2.3-62.7-2.3-80,0.1
				c-22.1,3-53.2,9.6-76,16.4c-5.8,1.7-6.3,2-7.3,5.3c-0.5,1.9-1,6.6-1,10.5c0,14.5,8.2,32.5,14.8,32.5c0.9,0,8.4-1.9,16.8-4.2
				c70.1-19.2,114.8-16.3,171.9,11.2c17,8.3,27.3,14.4,39.3,23.3c15.2,11.5,23.6,21.6,33.8,40.5l4.4,8.1l3.2-1.9
				C918.9,10056.9,920.5,10055.7,920.8,10055.4z M694.3,9950.1c0,6.8-2.3,9.6-11.4,14.1c-9.7,4.8-16.2,5.6-21.5,2.8
				c-4.9-2.7-6.6-6.9-6-15.4c0.4-5.2,1.1-7.8,3.2-11.6c3.9-7,7.5-9.2,14.6-9.2C685.9,9930.7,694.3,9938.5,694.3,9950.1z"/>
			<path class="st9" d="M820.7,9959.2c3.1-1.7,4.8-5,4.8-9.9c0-10.5-10.5-15.4-18.6-8.7c-3,2.6-5.1,8.6-4.1,11.8
				C804.7,9958.9,814.2,9962.5,820.7,9959.2z"/>
			<path class="st9" d="M684.8,9951.4c0.5-5.6-1-8.6-5.7-11.4c-10.8-6.6-23,8.2-14.4,17.5c2.8,2.9,4.9,3.8,9.7,3.8
				c3.1,0.1,4.7-0.5,6.9-2.5C683.8,9956.7,684.5,9955.3,684.8,9951.4z"/>
			<path class="st9" d="M622.2,9995c6.8-3.9,7.5-4.6,7.2-7c-0.2-1.9-9.4-33.8-12.6-43.8c-0.1-0.5-1.4,1.5-2.8,4.4
				c-3.6,7.7-14.8,16.4-30.2,23.9c-6.6,3.2-7.6,3.3-15.4,3.2l-8.5-0.2l-1.5,7.2c-2,9.6-3.2,12.2-5.2,12.2c-3.1,0-4.6-2.9-8.7-16.6
				l-4.1-13.5l-6.3-6c-17.7-16.9-37.6-45.7-47.3-68.1c-4.1-9.6-16.5-46.2-16.5-48.8c0-1-0.5-3.3-1-5.2c-0.8-3-1.3-3.5-3.4-3.5
				c-7.1,0-19.9,9.9-28.3,21.8c-7,9.9-9.4,18.5-9.5,33.6c-0.2,19.8,4.5,36.6,17.1,62.3c11.3,22.9,26.7,44.6,47.4,66.9
				c9.1,9.7,29.8,24.9,44.1,32.6c8.3,4.4,9.3,4,23-9.2C576.4,10024.8,596.3,10010.2,622.2,9995z"/>
			<path class="st9" d="M876,10353c4-9.8,7.2-38.3,5.6-49.8c-0.7-5.1-1-5.6-3.5-6.4c-4.7-1.5-24.4-1-34.4,0.7
				c-5.1,1-15.5,3.2-23.2,5.2c-34.8,8.9-48.4,10.5-89.7,10.5c-53.1,0-77.8-2.1-113.6-9.6c-19.6-4.2-22-4.4-26-2.2
				c-8.3,4.3-9.2,20.5-3.4,63c2.2,17,2.7,17.9,11.4,22.2c9.8,4.9,20.4,11.6,26.6,16.9c3.3,2.9,6.6,5.2,7.3,5.2c0.6,0,5-2.7,9.7-5.9
				c10.8-7.5,18.3-11.2,26.9-13.6c20.8-5.7,59.9-6.3,75.1-1.2c2.3,0.8,9.5,3.9,15.9,6.9l11.8,5.6l11.5-7.6
				c13.5-8.8,30.6-17.6,45-23.1c11.9-4.5,29.8-9.7,35.8-10.7C872.6,10357.8,874.5,10356.9,876,10353z"/>
			<path class="st9" d="M950.2,10482.7c10.7-27.3,4.5-52.4-18.4-74.1c-6.8-6.4-15.3-12-28.2-18.4c-11.9-5.9-15.5-7.3-23-8.4
				c-9.5-1.3-40,1.9-51.7,5.6c-3.2,1-13.3,5.9-22.6,11c-19.4,10.7-21.8,12.1-21.8,13.6c0,0.6,2,5.2,4.7,10.3
				c4.9,9.7,6.7,16.5,8,30.7c0.9,9.2,2,9.9-16.8-11.3c-18.5-20.6-26.7-27.5-39.1-32.7c-9.6-4-13.9-4.5-38.6-4.5
				c-19.5,0-24.9,0.3-30.7,1.7c-15.5,3.6-25.9,9.8-40.6,24.5c-5.3,5.3-10,9.5-10.5,9.2c-0.5-0.3-1.9-3.5-3.3-7.3
				c-6.2-16.5-11.7-23.9-21.2-28.6c-9-4.4-16.5-6-27.5-6c-9.4,0-10,0.2-17,3.4c-9.8,4.8-19.2,13.9-22.1,21.7
				c-3.8,10.4-3.4,31.4,1,48.3c6.8,26.5,28.9,45.3,53.5,45.5c9.2,0,14.1-1.9,21.3-8.7c4.8-4.6,4.9-4.8,4.2-8.2
				c-1.1-4.7-1-9.5,0.1-9.5c0.5,0,5.2,3.2,10.4,7.3c21.9,16.6,35.9,24.7,49.4,28.1c18.3,4.7,49.7,4.2,72.2-1
				c4.8-1.1,16.2-6.6,38.1-18.3c4.8-2.6,9.7-5,10.9-5.3c1.9-0.6,1.9-0.5,1.3,2c-1.9,6.2-7.8,13.4-15.3,18.3c-1.4,1-2.5,2.2-2.5,3
				c0,4.3,24.7,12.5,45.6,15.2c8.9,1.1,25.8,1.2,36.1,0C902.9,10534.7,938.4,10513.1,950.2,10482.7z"/>
			<path d="M1207.7,10063.5c12.7-50.5,6.3-113.6-17.6-173.1c-6.5-16.4-12.5-27.2-28.3-50.8c-8.9-13.4-14.5-20.5-21.9-28.4
				c-17-17.9-15.4-15.5-14.1-20.7c1-3.8,1-6.9-0.4-18.4c-2.8-24.8-8.9-70.1-12.3-91.2c-1.8-11.3-5-32.8-7.3-47.9
				c-2.6-17.1-4.9-29.6-6.2-33c-2.8-7.5-7.3-11.9-14.3-14c-5.9-1.7-12.4-1.7-62.8,0.6c-11.5,0.5-43.5,1.5-71.2,2.3
				c-27.6,0.8-61.6,1.9-75.6,2.3c-70,2.6-236,3.6-288.5,1.9c-15.1-0.5-41.9-1.4-59.5-1.9c-57.6-1.8-108.4-5.9-156.2-13
				c-10.5-1.5-21.9-2.8-25.2-2.8h-6.2l-2.4,5.9c-3,7.5-6.5,20.9-13.2,49.9c-2.8,12.5-9.3,39.4-14.4,59.5
				c-13.3,52.6-19.4,85-18.2,94.6c0.8,5.4,2.8,9.1,6.1,11.1l2.8,1.7l-7.5,3.9c-4.1,2-9.4,5.4-11.8,7.3c-3.2,2.5-5,3.2-6.8,3
				c-1.3-0.3-11.7-1.8-23.2-3.3c-21.2-3-25.8-3-30.8-0.5c-6.1,3.2-8.4,14.7-5,26.1c3.8,13.3,17,32.9,29.7,44.3
				c3.9,3.5,7.1,6.8,7.1,7.3c0,0.6-6.6,7.5-14.7,15.5c-15.9,15.8-24.6,27.2-31.7,42.3c-11.3,23.6-15.9,49.4-12.7,69.9
				c4,26.6,13,43.1,29.2,53.8c14,9.3,28.1,13.1,59.2,16.1c31.8,3,67.5,1,113.5-6.1c9.6-1.5,17.7-2.6,17.8-2.5
				c0,0.1-4.2,9.6-9.4,21.1c-5.2,11.5-13.5,30.6-18.4,42.4c-4.8,11.8-12.6,29.6-17.2,39.5c-9.5,20.4-34.1,81.8-37.6,93.8
				c-5,16.5-5.8,30.6-2.4,41.5c1.6,5.2,2.9,7.2,7.3,11.5c4.2,4.3,6.1,5.5,10.1,6.4c12,3,26.4-4,44.1-21.1c5.1-4.9,13-13.9,17.5-19.9
				l8.1-10.8l0.6,9.4c2.3,40.4,29.8,48.6,60.4,18.2c13.4-13.5,21.1-25.1,37.9-57.5c5.8-11,10.8-20.4,11.3-21
				c0.5-0.7,2.9-1.4,5.2-1.8c2.4-0.4,6.6-1.5,9.4-2.5c2.7-1,5.1-1.7,5.3-1.5c0.8,0.8,7.5,16.1,11.8,26.8c5.4,13.4,6.3,18.3,6.3,35
				c0,9.6,4.5,64.5,7,86.5l0.6,4.8l-6.8,0.7c-15.9,1.5-27.5,6.6-37.5,16.7c-12.5,12.5-17.3,27.4-17.5,53.6
				c-0.1,13,0.2,15.3,2.5,23.6c6.9,24.7,19.1,42.7,36.6,53.8c13.5,8.6,26.9,12.8,40.7,12.8c11.2,0,17.3-1.7,30.7-8.3l11.2-5.5
				l13,6.7c22.1,11.3,41.5,15.9,66.1,15.8c19.1-0.1,25.5-1.5,40.8-9.1l10.2-5.1l4.6,4.2c2.6,2.3,8,6.4,12.2,9.1
				c14.8,9.7,26,14.3,41.9,16.7c26.4,4.1,56.8,0,82.9-11.2c21.3-9.1,35.2-18.5,50-34c19.5-20.3,31.4-44.4,33.6-67.9
				c1.7-19.1-8.1-39.7-28.8-60.9c-18-18.3-32-26-54.3-29.6l-4-0.7l0.6-3.8c0.4-2.1,2.1-11.7,4.2-21.2c1.9-9.6,4.2-21.9,4.9-27.4
				c1.9-14.5,3.6-40.7,3-47.8c-0.4-4.7,0-8.5,1.8-16.3c1.3-5.6,3-14.4,3.8-19.5c2.1-13,2.3-13.5,6.9-13.5c3.4,0,4,0.3,6.3,4.3
				c1.4,2.3,9.2,14.1,17.4,26.2c12.9,19.3,16.2,23.4,26,33.2c12.9,13,21,19.3,32.1,25c11.5,5.9,17,7.4,27.8,6.9
				c11.5-0.5,17.4-3.2,25.1-11.5c14.8-15.9,21.7-48.5,17.5-82.9c-0.7-5.3-1.1-9.6-1-9.6c0.1,0,2.3,2.9,5,6.5
				c12,16.2,23.6,22.4,38,20.2c15.2-2.2,26.6-14.9,26.6-29.5c0-7.7-2.3-12-14.1-26.7c-4.8-5.9-8.6-10.9-8.4-11.1
				c0.1-0.1,5.4-2.6,11.7-5.4c17.5-7.8,24.2-12.5,36.9-25.1C1190.9,10108.5,1200.6,10091.4,1207.7,10063.5z M1166,9893.9
				c31.2,68.4,34.1,138.1,7.8,193.6c-5.9,12.4-20.3,33.9-26.9,40.4c-6.3,6.2-19.6,15.2-25.9,17.4c-10.1,3.7-9.1,4.1-17.3-5.6
				c-4-4.7-10.5-12.4-14.4-17l-7.2-8.5l3.2-4.7c4.9-7.5,6.3-15.7,4.1-25.3c-0.5-2.2-0.7-4.3-0.4-4.7c0.4-0.3,8-0.9,17.1-1.1
				c23-0.9,31.8-3.3,33.9-9.6c1.9-5.4-0.4-5.6-34.8-2.4c-11.5,1-21.5,1.7-22.4,1.4c-0.9-0.3-3.9-3.3-6.7-6.8
				c-8.5-10.6-24-31.1-23.7-31.3c0.2-0.2,17-0.8,37.5-1.3c20.4-0.7,39.5-1.4,42.3-1.9c20.4-3.2,25.7-7,16.4-11.9
				c-4.3-2.3-19.8-2.7-36.6-0.9c-13.6,1.5-32,2.7-57.2,3.9l-12.6,0.7l-2.2-3.2c-1.2-1.8-7.2-9-13.1-16.1c-6-7.2-11-13.3-11-13.7
				c0-0.5,1-1.9,2.2-3.3l2.2-2.6l11.5,0.2c15.9,0.2,88.5-3.2,94.9-4.5c5.8-1.2,11-3.9,11-5.8c0-2.1-5.7-4.1-15-5.3
				c-14.2-1.8-63.9,0.3-89.4,3.7c-6.2,0.9-6.7,2.5,4.2-15.3c4.1-6.6,8.7-14.4,10.2-17.2c4.2-7.7,3.7-7.5,12.6-7.5
				c7.3,0,24.1-1.3,47.4-3.7c14.1-1.5,19.9-5.9,13.8-10.6c-4.3-3.2-17.4-3.2-41.3,0c-10.9,1.4-20,2.3-20.3,2
				c-0.4-0.3,1.5-5.1,4.1-10.7c5.2-11.5,7-17.7,8.4-29.1c3-23.8-0.6-39.7-11.7-52.1l-4.1-4.6l4.3-0.5c2.3-0.3,6.1-0.9,8.7-1.1
				c2.4-0.3,9.9-1.8,16.7-3.3l12.5-2.9l4.2,2c7.5,3.6,29.2,26.4,41.4,43.3C1151,9865.5,1161.3,9883.5,1166,9893.9z M1124.7,10191.2
				c2.5,3.4,3.2,5.3,3.2,8.7c0,5.4-1.9,8.3-6.7,10.8c-9.7,4.9-16.5,1-32.1-19.1c-7.5-9.6-35.1-49.7-35.5-51.6
				c-0.3-1,1.9-3.5,5.9-7.2l6.3-5.7l2.5,1.8C1072.5,10131.9,1120.1,10184.4,1124.7,10191.2z M1099.8,9783.6v3.9
				c0,3.4-0.3,3.9-3.2,5.1c-8.2,3.4-19.8,4.6-48.4,4.6l-27.9,0.1l-15.4-8.1c-8.5-4.4-17.9-8.7-20.9-9.6c-3.1-1-11.8-4.6-19.5-8.2
				c-18.3-8.6-20.7-8.8-30.4-3.5c-4.3,2.4-8.8,4.1-11.5,4.4c-2.6,0.4-11.9-0.4-21.3-1.5c-15.1-1.9-19.3-2-43.3-1.6
				c-14.6,0.3-35.4,1-46.2,1.7l-19.6,1.1l-8.7-2.9c-20-6.6-26.8-7.2-40.3-3c-13,4-20.5,5.3-46.2,7.9c-45.5,4.8-78.5,9.8-98.5,15.4
				c-5.3,1.5-13.4,3.2-17.9,3.7c-9.6,1.3-14,0.5-21.4-3.9c-9.5-5.6-29-9.3-49.2-9.6c-11.9-0.1-12.9,0.1-18.9,2.6
				c-3.6,1.5-7,3.6-7.9,5c-3.2,4.8-6.5,7.5-10,8.4c-3.3,0.9-15,1.9-15.5,1.5c-0.1-0.1-14-0.7-30.9-1.2c-70.3-2.4-103-5.2-114.9-10
				c-3-1.1-3.6-1.9-3.6-3.9c0-2.8,4.9-26.9,9.6-47.3c1.9-7.8,3.3-14.4,3.3-14.5c0-0.2,7-0.6,15.6-0.9c17.2-0.7,38.1-3.5,39.4-5.5
				c0.4-0.7,0.4-1.6,0-1.9c-1-1-9.3-2-25.7-3.4c-12.5-1.1-18.6-2.1-23.1-3.9c-2.3-1-2.5-1.3-2-4.4c0.4-1.9,1.1-5,1.9-7.1
				c0.7-2,1.8-7,2.3-11c1-6,1.5-7.3,3.2-7.6c1.1-0.2,8-1.3,15.4-2.3c7.4-1.1,13.8-2.2,14.1-2.4c1.4-0.9-1.2-4.1-3.2-4.1
				c-2.6,0-12.5-2.1-19.3-4.1l-5.2-1.5l0.7-4.2c0.4-2.3,0.9-4.4,1-4.6c0.2-0.2,2.9,0.1,6,0.7c10.5,1.8,12.1-1.6,2.7-5.8
				c-7.5-3.4-7.5-2.8-2.3-24.4c4.4-18.1,4.5-18.4,6.3-20.5c1.9-2.2,4.8-2.1,19.7,0.6c20.7,3.7,29.8,4.8,72.5,8.9
				c16.3,1.6,55.6,2.7,129.5,3.8c83.4,1.2,160.9,0.8,237-1.4c69.5-1.9,170.7-3.5,179.9-2.9c4.1,0.3,19.6,1,34.4,1.4
				c35.9,1.2,46.1,2.7,46.1,7c0,1.6-6.4,4.8-19,9.3c-8.3,3-11.1,5.2-9,7.3c0.7,0.7,6.8,1.2,16.7,1.4l15.7,0.4l0.6,2.8
				c0.3,1.6,0.6,3.2,0.6,3.5c0,0.4-2.1,1-4.8,1.1c-8.4,0.9-7.7,4.8,1.4,7.5c4.9,1.6,5,1.8,6,6c3.4,15.6,19.6,104.8,19.6,108.3
				c0,1-1.2,1.7-3.4,2c-1.9,0.4-8.7,1.9-15.2,3.4c-6.4,1.5-18.9,3.9-27.7,5.4c-8.9,1.5-16.6,3.2-17.2,3.7c-0.8,0.8-0.7,1.5,0.6,2.6
				c1.4,1.4,3.7,1.7,16.7,1.7c8.3,0,22.9-0.4,32.6-0.8L1099.8,9783.6z M1067.5,10083.9c6.1,9.7,7.3,13.5,5.1,17.7
				c-3.2,6.3-32.8,32.1-40.4,35.3c-4.8,2-11.4,1.6-15.6-1c-6.6-3.9-67.8-69.8-86.9-93.4c-2.3-2.8-8-9.5-12.5-14.9
				c-7.2-8.2-38.5-46.7-72.4-88.7c-7.5-9.3-11.7-15.8-10.7-16.7c0.2-0.2,4.4-1.4,9.2-2.8c20-5.6,34.8-16,44.5-31.2
				c2.6-4,5.1-7.5,5.6-7.8c1.3-0.9,26,26.5,64,70.6c9.2,10.8,21.4,24.8,26.9,31.2c5.6,6.4,16,18.5,23.1,26.9
				C1053.3,10062.7,1057.1,10067.4,1067.5,10083.9z M1043.1,10158.5c7.9,28.6,11.2,49.9,11.2,73.1c0,33.7-4.9,51.5-15.5,55.9
				c-1.7,0.8-4.8,1.3-7,1.3c-4.7,0-14.7-3.3-20.6-6.9c-18.3-10.8-50.7-46.3-61.5-67.9c-2.3-4.5-4.2-8.7-4.2-9.3
				c0-0.7,2.1-2.1,4.8-3.3c8.7-4.1,12.4-10.5,12.5-21.4c0-7.9-1.7-13.6-5.9-19.2c-3.6-4.8-8.5-7.7-22-13.2c-12.5-4.9-11.2-0.7-11-38
				l0.3-32.4l4.4-3.9c2.4-2.2,4.8-4,5.1-4c0.7,0,22.3,23.6,24.5,26.8c1.1,1.5,0.7,1.6-8.6,0.9c-15.5-1.3-22.6,0.9-22.6,6.7
				c0,5.4,7.2,8.5,19.9,8.5c8.4,0,28.4,3.6,31.9,5.8c1.7,1,5.4,4.5,8.2,7.7c5.2,5.9,15.6,14.6,25.3,21.2c4.7,3.2,5.7,3.4,11.4,3.4
				c3.3,0,8.6-0.6,11.5-1.3l5.2-1.2L1043.1,10158.5z M1027.4,9833.8c13.8,9.2,22.2,25.2,22.2,41.9c0,18.3-19.2,60.8-39.7,88.4
				c-2.8,3.6-5.7,6.7-6.3,6.7c-1.9,0-11-10.2-39.7-45.2c-15-18.3-28-34.1-28.9-35.3c-1.6-2.1-1.6-2.2,3.2-8.7
				c2.7-3.6,11.2-16.5,18.8-28.8c7.6-12.2,15.1-23.7,16.6-25.7c3.2-4.3,9.1-7.8,14.2-8.6C995.4,9817.4,1012.7,9824.1,1027.4,9833.8z
				 M967.5,9792.6c4.4,4.4,4.1,7.7-1.2,18.4c-4.8,9.3-33.7,58.2-38.4,64.6c-1.6,2.1-3.2,3.9-3.6,3.9c-1,0-19.7-18.7-19.7-19.7
				c0-2.9,28.8-52.1,38.7-66c4.6-6.5,5.4-7.3,8.1-7.3C956.8,9786.6,964.2,9789.4,967.5,9792.6z M931.8,10408.6
				c22.9,21.8,29.1,46.8,18.4,74.1c-11.8,30.4-47.3,52-94.2,57.1c-10.3,1.2-27.1,1.1-36.1,0c-20.8-2.7-45.6-10.9-45.6-15.2
				c0-0.8,1.1-2,2.5-3c7.5-4.8,13.4-12,15.3-18.3c0.7-2.5,0.6-2.6-1.3-2c-1.1,0.3-6,2.7-10.9,5.3c-22,11.6-33.4,17.1-38.1,18.3
				c-22.6,5.2-53.9,5.7-72.2,1c-13.5-3.4-27.5-11.5-49.4-28.1c-5.2-4-9.9-7.3-10.4-7.3c-1.1,0-1.2,4.8-0.1,9.5
				c0.8,3.3,0.7,3.6-4.2,8.2c-7.2,6.8-12.1,8.7-21.3,8.7c-24.6-0.2-46.7-19-53.5-45.5c-4.4-16.9-4.8-37.9-1-48.3
				c2.9-7.8,12.2-16.9,22.1-21.7c7-3.2,7.6-3.4,17-3.4c11,0,18.5,1.7,27.5,6c9.5,4.7,15,12,21.2,28.6c1.4,3.7,2.9,7,3.3,7.3
				s5.2-3.9,10.5-9.2c14.8-14.6,25.1-20.8,40.6-24.5c5.8-1.4,11.2-1.7,30.7-1.7c24.7,0,28.9,0.5,38.6,4.5
				c12.4,5.1,20.5,12,39.1,32.7c18.9,21.2,17.7,20.4,16.8,11.3c-1.3-14.1-3.1-20.9-8-30.7c-2.6-5.1-4.7-9.7-4.7-10.3
				c0-1.5,2.3-2.9,21.8-13.6c9.3-5,19.4-9.9,22.6-11c11.7-3.6,42.2-6.9,51.7-5.6c7.5,1.1,11.1,2.4,23,8.4
				C916.5,10396.6,925,10402.1,931.8,10408.6z M949.6,10171.6c1.8,3.3,1.8,11.2,0.1,15.2c-3.2,7.8-10.2,10.3-28.2,10.4
				c-12.1,0-13.5,0.2-15.2,1.9c-1.9,1.9-3.3,7.9-5.8,25.5c-2.3,15.5-7,22.1-22.4,31.1c-25.5,15-67.7,27.3-111.7,32.7
				c-11.6,1.4-53.9,2.4-66,1.7c-38.9-2.6-92.3-12.7-107.2-20.3c-8.9-4.6-17.3-16.8-29.3-43.1c-4.4-9.6-7.8-15.8-10-18.3
				c-3.2-3.2-3.7-3.5-7.1-2.9c-1.9,0.4-5.9,1.9-8.8,3.4c-7.5,3.9-17.2,4.6-22.9,1.7c-5.1-2.6-10.7-8.4-13.4-13.9
				c-3.2-6.5-3.1-18.5,0.2-24.4c2.9-5.2,7.1-7.5,14-7.5c8.2,0,12,1.5,13.6,5.1c1.5,3.6,1.7,9.1,0.4,11.5c-0.5,1-3.4,2.8-6.7,4.2
				c-9.4,4.1-10,4.5-10.6,6.8c-1,4.1,0,4.9,6.3,4.9c7.6,0,19.9-3.9,23-7.3c2-2.2,2.1-3,1.7-9c-0.3-3.5-1.7-11.9-3.1-18.6
				c-2.3-10.8-2.6-14-2.7-29.8c0-19.4,1-26.3,6.1-39.6c5.3-13.7,14-24.5,32.8-40.3c24.7-20.7,65.5-46.9,84.7-54
				c27.9-10.5,80.1-15.1,107.4-9.3c29,6,56,16.2,72.8,27.2c25.9,17,52.3,56.8,61.2,92.1c1.6,6.4,2.2,13,3.1,31.8l1,23.7l3.9,6.5
				c7.1,12,10.6,14.3,23.6,15.9c4.3,0.5,5.4,0.3,7.6-1.5c1.4-1.1,2.5-2.6,2.5-3.2c0-2.3-4.1-4.2-10.3-4.8c-5.2-0.5-6.3-1-9.4-4
				c-3.1-3.1-3.5-4.1-3.5-7.8v-4.3h6C937.4,10161.4,946.4,10165.6,949.6,10171.6z M835.9,9956.8c2.7,0,86.1,96.7,84.9,98.6
				c-0.3,0.4-1.9,1.6-3.6,2.6l-3.2,1.9l-4.4-8.1c-10.2-19-18.7-29.1-33.8-40.5c-11.9-8.9-22.2-15.1-39.3-23.3
				c-57.1-27.4-101.8-30.4-171.9-11.2c-8.5,2.3-16,4.2-16.8,4.2c-6.6,0-14.8-18-14.8-32.5c0-3.9,0.5-8.7,1-10.5
				c1-3.2,1.4-3.6,7.3-5.3c22.8-6.8,53.9-13.5,76-16.4c17.3-2.4,61.7-2.4,80-0.1c18.9,2.4,17.3,1.7,17,8.5l-0.3,5.7l-3.3,0.6
				c-8.8,1.4-15.3,9.3-15.3,19c0,7.2,3,12.2,9.5,16c8.8,5.2,23.1,2.3,28.5-5.8C834.3,9958.3,835.5,9956.8,835.9,9956.8z
				 M896.5,9794.1c12.1,3.2,15.2,9.1,10.5,20.4c-2.4,5.7-10.3,17.9-15.3,23.3c-1.9,2-3.6,3.6-4,3.6c-2.1,0-10-9.6-20.3-24.7
				c-4.3-6.3-10.8-14.4-15.1-18.6c-4.1-4.1-7.5-7.8-7.5-8.3C845,9788.3,887.8,9791.8,896.5,9794.1z M882.7,9863.1
				c2.5,1,1.7,6.3-2,12.5c-3.9,6.5-14.7,18.3-20.3,21.9c-10,6.6-35.9,8.9-59.5,5.5c-7.2-1.1-22.6-2.4-34.4-3
				c-24.9-1.3-21-1.8-100,11.2c-24.8,4-48.3,7.8-52.4,8.3c-8.6,1.2-28.2,1.2-34,0c-2.2-0.5-5-1.5-6.3-2.2
				c-7.3-4.8-20.4-35.1-22.7-52.3c-1.5-11.6,0.4-33.1,3.9-43.7l1-3.1h15.9c8.8,0,20.6,0.5,26.2,1c20.9,2,86.6,9.3,87.9,9.6
				c0.8,0.3,8.9,0.9,18.2,1.4c9.2,0.5,24.3,1.8,33.5,2.8c29,3.2,45.6,2.2,62.8-3.5c9.7-3.3,12.5-4.7,21.7-10.7
				c5.3-3.5,7.2-5.3,7.2-6.8c0-1.9-0.7-2.1-7-2.7c-5.9-0.6-7-1-7-2.4c0-1,0.9-2.6,1.8-3.5c5.4-5.4,24.5-2.6,29.8,4.4
				c3.5,4.4,2.6,7-5.8,15.8c-9.3,9.8-15.5,18.9-15.5,22.6c0,1.5,0.4,2.7,0.8,2.7c2,0,9.1-5.8,14.2-11.6c11.1-12.6,13-14.4,15.2-14.4
				c2.6,0,5,2.5,6,6.2c1.4,4.9-1,9-11.3,19.6c-9.6,9.9-14.3,16.2-13.4,17.8c0.8,1.1,5.7-0.1,10.8-2.7c2.3-1.1,8.1-6,12.8-10.8
				c7.5-7.6,9-8.7,11.8-8.7c2.3,0,3.4,0.6,4.2,1.9c2.1,3.9,1.1,5.3-19.4,29.2c-3.1,3.6-5.6,6.9-5.7,7.4c0,0.5,1.3,0.6,2.9,0.2
				c1.8-0.4,5.6-3.1,10-7.2C872.9,9867.8,880.7,9862.4,882.7,9863.1z M881.6,10303.3c1.6,11.5-1.6,39.9-5.6,49.8
				c-1.5,3.8-3.3,4.8-11.5,6c-6,1-23.9,6.2-35.8,10.7c-14.4,5.5-31.5,14.2-45,23.1l-11.5,7.6l-11.8-5.6c-6.4-3-13.6-6.1-15.9-6.9
				c-15.3-5.1-54.3-4.5-75.1,1.2c-8.7,2.4-16.1,6.1-26.9,13.6c-4.8,3.2-9.2,5.9-9.7,5.9c-0.7,0-3.9-2.3-7.3-5.2
				c-6.2-5.3-16.7-12-26.6-16.9c-8.7-4.4-9.1-5.2-11.4-22.2c-5.8-42.4-4.8-58.7,3.4-63c4-2.1,6.3-1.9,26,2.2
				c35.9,7.5,60.6,9.6,113.6,9.6c41.3,0,54.9-1.6,89.7-10.5c7.7-1.9,18.2-4.3,23.2-5.2c10-1.7,29.8-2.1,34.4-0.7
				C880.5,10297.7,880.9,10298.2,881.6,10303.3z M825.5,9949.2c0,4.9-1.7,8.3-4.8,9.9c-6.5,3.3-16-0.3-18-6.8
				c-1-3.2,1.1-9.2,4.1-11.8C815,9933.8,825.5,9938.7,825.5,9949.2z M799.1,9815.2c0.6,2.9,0.4,3.1-3.7,4.9
				c-4.9,2.1-15.2,3.1-20.4,1.8c-1.9-0.5-5.1-1.8-7.2-2.8c-6.5-3.2-16.6-20.1-16.7-27.5c0-8.4,12.3-12.3,22.9-7.3
				c3.2,1.6,17.3,17,22.1,24.2C797.4,9810.5,798.7,9813.6,799.1,9815.2z M744,9805.7c1.9,5.4,3.3,9.9,3.2,10
				c-1,0.7-65.3-7.2-91.7-11.1c-17.7-2.6-23.5-4-21.6-5.1c7.2-3.9,60.4-8.8,88.6-8.2C740.1,9791.8,738.9,9791,744,9805.7z
				 M629.4,9988c0.3,2.4-0.4,3.1-7.2,7c-26,15.2-45.9,29.8-62.7,46c-13.7,13.2-14.7,13.6-23,9.2c-14.3-7.6-35-22.8-44.1-32.6
				c-20.7-22.2-36.2-44-47.4-66.9c-12.6-25.7-17.3-42.5-17.1-62.3c0.1-15.1,2.5-23.6,9.5-33.6c8.4-11.8,21.2-21.8,28.3-21.8
				c2.1,0,2.7,0.6,3.4,3.5c0.6,1.9,1,4.3,1,5.2c0,2.6,12.5,39.2,16.5,48.8c9.6,22.4,29.7,51.1,47.3,68.1l6.3,6l4.1,13.5
				c4.1,13.8,5.6,16.6,8.7,16.6c2,0,3.2-2.6,5.2-12.2l1.5-7.2l8.5,0.2c7.8,0.1,8.8-0.1,15.4-3.2c15.4-7.5,26.6-16.2,30.2-23.9
				c1.4-2.9,2.7-4.8,2.8-4.4C620,9954.2,629.2,9986.2,629.4,9988z M585.3,9945.1c6.3,4.7,7.4,5.8,7,7.7c-0.6,3-5,7.4-10.3,9.9
				c-5.8,2.9-9.2,3.4-13.4,1.9c-5.3-1.8-9.2-5.1-24.4-20.4c-15.3-15.3-22.6-24-30.7-36c-6.6-9.7-17.5-31.6-20.4-40.8
				c-5-15.9-5.4-31.3-1-49.1c4.9-20.3,8.2-22.4,30.2-19.7c6.7,0.9,14.9,2.6,14.9,3.2c0,0.1-0.9,3.4-1.9,7.5
				c-3.8,14.6-4.1,42.9-0.5,59.9C541,9899.2,558.4,9925.3,585.3,9945.1z M533.7,10073.6l-3.4,11.5c-4.1,14.4-5.2,23.6-5.2,45.3v16.9
				l-2.5,0.3c-2.2,0.3-3.3-1-13.2-15.8c-8.6-12.7-11.2-16-12.6-15.8c-1.6,0.3-1.9,0.9-1.6,4.4c0.4,6.2,4.5,17.5,8.7,23.9
				c1.9,3.1,3.6,5.9,3.6,6.4c0,0.4-1.9,3.1-4.4,5.9c-2.3,2.9-5.6,8-7.2,11.5l-3,6.3l-5-5.1c-5.1-5.2-7.1-6-9.1-4
				c-2.8,2.8,0.2,11.1,7.8,21.2c3.2,4.4,4.9,7.8,6.1,12.5c1.9,7.5,5,13.2,10.3,18.9c2.5,2.8,3.4,4.5,3.1,5.6c-0.4,1-4.8,9.6-10,19.3
				c-24.2,45.6-33.2,58.5-45.3,64.5c-10.3,5.3-16,3.3-18.8-6.2c-2.1-7.1-1.6-25.7,1-37.8c7.3-34.5,24.7-83.1,44.7-125.1
				c8.9-18.6,18.3-39.8,30.7-69.3c2.1-5.1,4.4-9.8,5.1-10.5c1-1,2.3-0.3,7.9,4.7c3.7,3.2,8.1,6.9,9.6,8.2L533.7,10073.6z
				 M499,10044.7l-2.7,7.9c-5.9,17.4-7.7,21.5-8.9,20.4c-0.7-0.6-3.8-5.4-7.1-10.9c-6.4-10.6-12.1-17.5-14-16.8
				c-0.7,0.3-1.3,2.2-1.5,4.7c-0.5,7.3,5.9,21.3,14.9,32.7c1.9,2.5,3.5,5,3.5,5.6c0,1.6-12.2,32.2-12.8,32.2c-0.4,0-3.2-3.3-6.2-7.5
				c-6.1-8.4-12.6-14.8-14.9-14.8c-0.9,0-1.9,1-2.3,2.3c-1.9,5.1,4.1,16.8,13.7,26.3c2.7,2.7,4.9,5.5,4.9,6.1
				c0,3.4-14.6,39-15.8,38.5c-0.4-0.2-3.8-4.5-7.7-9.6c-12.5-16.6-16.4-19.6-17.9-13.6c-1.4,6.5,3.4,15.4,14.5,26.4l7.3,7.3
				l-1.7,4.4c-3.1,7.6-11,24.1-11.9,24.7c-0.5,0.4-2.6-2-4.7-5.2c-5.5-8.6-14.5-19.5-17.3-21c-3.5-1.9-5.3-0.8-5.3,3.4
				c0,6.3,4.9,14.6,14.6,24.2l8.7,8.7l-5.9,11.4c-3.2,6.2-9.8,18-14.8,26c-19.1,31.1-34.2,49.4-46.2,55.3c-8.3,4.1-13.1,4.1-16.3,0
				c-3.3-4.6-5.6-13.1-5.6-21.7c0.1-6.4,0.7-9.2,4.5-20c7.4-20.9,22.8-57.7,44.1-105.1c14-31.3,75.9-152.5,77.8-152.5
				c0.6,0,7.1,5.9,14.5,13.3c7.5,7.4,14.6,14.1,16.1,15.2L499,10044.7z M450.8,9994.7c7,8.8,7.1,9,3.8,16.5
				c-7.5,17.5-11.5,24.7-15.4,27.5c-20.7,15.1-56.9,26.1-99.1,30.5c-13.8,1.4-46.3,1.9-56.3,0.9c-36.7-3.8-58.3-13.5-67.3-30.4
				c-13.7-25.7-4-69.3,22.6-102.2c13.3-16.5,35.3-33.2,46.2-35.2c4.2-0.8,7.1,1,9.7,6c5.5,10.1,12.6,13.3,29.5,13.2
				c5.7-0.1,13.7-0.6,17.8-1l7.5-1l4.9,5c5.2,5.2,10.9,7.9,16.4,7.9c1.7,0,4.9,0.3,7.2,0.6l4.3,0.6l3.3,12.3
				c5.4,19.9,7.8,30.9,10.3,47c3.4,22.4,6.8,33.6,10.2,33.6c3,0,3.7-3.9,3.7-19.5c0-18.7-1.9-30.3-9.4-56.2
				c-2.8-9.6-4.8-18-4.4-18.3c0.5-0.5,3.7-1.4,7.3-2c3.6-0.8,7-1.5,7.5-1.7c0.7-0.2,5,7.4,9.9,17.3
				C430.1,9963.9,442.3,9983.8,450.8,9994.7z M416.4,9838.3l-4.2,8.4c-6.7,13.3-7.6,17.4-7.5,32.9c0,10.3,0.6,15.5,2,22.3
				c1.1,4.8,2,9.6,2,10.8c0,2.6-4.2,4.7-12.1,5.8c-3.3,0.6-10,1.2-14.9,1.5c-8.2,0.6-9.2,0.4-13.8-1.8c-4.4-2.1-4.9-2.6-4.3-4.5
				c3.6-11.4,3.7-10.6-8.9-57.9c-2-7.6-4.4-17.5-5.1-21.9c-1.5-8.5-1.9-24.7-0.7-23.8c0.5,0.3,7.6,1.4,16.1,2.4
				c15.4,1.9,34.5,5.7,39.3,7.5c2.4,1,6.9,7.3,10.4,14.9L416.4,9838.3z M350.7,9896.6c0.9,5.4-1.1,9.5-5.3,10.7
				c-1.7,0.6-7.2,1.4-12.1,1.9c-11.3,1.3-13.4,1.2-17.6-0.3c-6.5-2.3-8.9-4.8-11.9-12.5c-6.3-16.4-10.5-38.4-10.7-55.9l-0.1-12.4
				l5.1-4.8c6.5-6,10.9-7.9,20.1-8.7c10.5-0.9,11.9-0.1,14.2,7.7C335.3,9832.2,349.9,9891.8,350.7,9896.6z M285.1,9880.8
				c0.5,2.4,1,4.8,1,5.3c0,1.5-1,1.1-8.2-2.8c-9.7-5.3-17.6-10.8-23.8-16.6c-13.3-12.5-27.4-36.9-22.5-38.8
				c2.4-1,45.2,10.4,47.3,12.6c0.5,0.4,1.9,8.7,3.1,18.3C283.2,9868.4,284.6,9878.4,285.1,9880.8z"/>
			<path d="M1029.1,9684v-26.7h-13h-12.9l0.6,22.1c0.6,24.8,0.1,28.6-4.6,32.8c-2.9,2.5-2.9,2.6-1.3,5c1,1.4,3.8,3.5,6.4,4.8
				c8.9,4.3,18.8,1.1,22.9-7.3C1029.1,9710.9,1029.1,9709.3,1029.1,9684z"/>
			<path d="M1025.9,10206.5l-0.1-3.7c-0.1-3.2-0.9-4.3-4.5-7.6c-6.4-5.8-19.2-10.1-32.7-11.2c-10.3-0.8-14.3,0.1-14.3,3
				c0,1.3,1.1,3.1,2.8,4.5c3,2.5,3.4,2.7,25.1,10.3c11.1,3.9,15.5,5,19.1,4.9L1025.9,10206.5z"/>
			<path d="M1025.3,9746c7.2-8.1,0.8-18.1-11.6-18.1c-8.2,0-14.3,5.1-14.3,11.8c0,3.7,4.3,8.9,8.6,10.2
				C1014.8,9752.3,1021.2,9750.8,1025.3,9746z"/>
			<path d="M1012.2,10160.6c0.9-5.6-5.8-8.9-26.9-13.3c-17.8-3.7-36.8-2.3-35.9,2.6c0.5,2.6,5.8,4.7,18.4,7.3
				c6.4,1.3,15.8,3.5,20.9,5.1C1002.6,10166.3,1011.5,10165.7,1012.2,10160.6z"/>
			<path d="M991.9,9689.8v-31.5h-12.5h-12.5v25.6v25.6h-4.6h-4.6l-0.6-5.8c-2.8-30.2-4-35.9-9-42c-3.8-4.5-7.6-6.1-14.5-6.1
				c-4.3,0-6.1,0.5-8.8,2.3c-4.7,3.2-5.3,5.6-2.3,8.7c5.6,5.8,10,20.1,11.7,37.8c1.8,17.9,1.5,17,5.5,17.8c1.9,0.4,5.8,1,8.6,1.4
				c6.7,1,30.5,0.3,37.9-1.1l5.8-1L991.9,9689.8L991.9,9689.8z"/>
			<path d="M915.4,9679.8l0.6-22.5h-12.8h-12.7l0.4,19l0.3,19l-7.9-18.5c-7.9-18.5-7.9-18.5-10.8-18.5h-3l-6.3,16.1l-6.4,16
				l-0.7-7.8c-1.6-18.3-8-27-19.8-27c-4.8,0-8.3,1.5-11.6,5.1c-2.2,2.3-2.2,2.5-0.7,4.9c6.5,10.3,8.9,20.5,9.6,40.4l0.6,15.5h13.4
				h13.3l5.8-12.1c4.1-8.7,5.9-11.9,6.7-11.2c0.6,0.6,3.5,5.8,6.6,11.9l5.6,10.9l14.7,0.3l14.6,0.3v-9.6
				C914.7,9706.6,915,9692.2,915.4,9679.8z"/>
			<path d="M876.4,10171.6c5.2-3.2,6-6.7,5.6-23.7c-0.4-17.8-1.4-20.4-10.4-29.6c-19.6-19.9-53.9-22.4-100.5-7.5
				c-14.3,4.7-28.7,10.5-34.4,14c-2,1.3-6.9,4.8-10.7,7.6c-12.5,9.5-10.8,9-19.8,4.8c-4.3-2-13.2-6.8-19.8-10.6
				c-22.2-12.9-35.4-18.6-53.9-22.9c-8.9-2.1-12.3-2.4-26.5-2.4c-18.3,0-25.1,1.1-35.1,5.9c-7.1,3.5-14.7,11.5-16.2,17
				c-1.1,4-0.5,12.9,1.1,17.1c1.6,4.3,6.4,9.4,9.7,10.5c4.9,1.7,7.8-0.1,14.8-8.5c3.3-4.1,6.8-7.4,7.6-7.4c0.9,0,4.1,1.4,7.2,3.2
				c5.4,3.1,10,7,29.9,25c15.6,14.1,33.3,24.7,51.7,31c13.8,4.7,13.5,4.3,14,14c0.5,9.9,3.7,17.5,11,25.7c4.8,5.3,7.5,6.7,7.5,3.8
				c0-0.9-1.4-7-3.2-13.8c-4.5-16.9-4.7-20.8-1-24.3c3.7-3.4,8-3.1,12.7,1c2,1.8,4.3,3.2,4.9,3.2c1.2,0,5-3.5,5-4.8
				c0-0.3,3.6-0.9,8.2-1.2c15.4-1.2,27-4.9,37.1-11.8c2.4-1.7,9.6-7.3,15.9-12.4c13.1-10.8,20-15.3,29.3-18.9
				c5.8-2.2,8-2.6,16.6-2.6c11.6,0,13,0.7,18.8,9.2C860.6,10172.9,868.9,10176.2,876.4,10171.6z M839.4,10127.1
				c0,1.5-2.2,2.6-9.3,4.7c-2.2,0.7-6.6,3.2-9.7,5.7c-3.1,2.5-7.5,5.6-9.9,6.8c-2.4,1.2-4.7,2.2-4.9,2.2c-1.9,0,1.5-8,5.6-12.8
				c3.2-3.9,11.3-6.8,20.7-7.4C838.2,10125.9,839.4,10126,839.4,10127.1z M781.8,10133.3c7.1-7.3,18.5-12.5,18.5-8.7
				c0,2.4-4.5,13.2-9.3,22.7c-4.8,9.4-10.6,16.8-18.3,23.3c-2.3,2-5.5,4.4-7.1,5.2l-2.8,1.5l0.7-4.1
				C766.2,10157.9,773.6,10141.8,781.8,10133.3z M764.3,10136.3c2.7,7.2-5.3,30.6-13.8,40c-1.9,2-3.7,3.7-4.2,3.7
				c-1.1,0-1-12.5,0.1-18.7c1.4-7.5,5.8-15.8,11.7-22C763.4,10133.9,763.4,10133.9,764.3,10136.3z M739.8,10148.8c0.6,2,1,5.7,1,8
				c0,5.4-3.1,17.6-5.7,22.1c-1,1.9-2.7,3.9-3.6,4.6c-1.6,1-1.8,0.7-2.4-4.1c-1.2-9.6,2.7-26.2,7.5-31.8l2.1-2.4L739.8,10148.8z
				 M721,10170.6c0.7,5.5-0.9,10.2-4.4,14c-2.5,2.7-5,3.5-5.9,2c-1-1.7-2.4-13.1-2.4-19.8c0-7,0-7.2,2.5-7.6
				C716.4,10158.2,720,10162.1,721,10170.6z M704,10182.1c0.3,2.4,0.2,4.4-0.3,4.4c-2.3,0-10.3-22.3-10.3-28.8c0-2.6,0.2-2.9,1.8-2
				C698.8,10157.7,702.2,10168.2,704,10182.1z M694.3,10183.6c0,0.6-0.5,1-1,1c-1.7,0-9.6-8.5-13.9-14.8
				c-6.6-9.6-16.4-31.7-14.1-31.7c2.2,0,9.5,6,12.4,10.3C684.3,10158.2,694.3,10179.6,694.3,10183.6z M672.6,10176.5
				c0.6,4.1,0.5,4.4-1.4,4.4c-2.2,0-2.7-0.5-11.1-11.2c-10.3-13.3-12.2-16.5-19.8-33.9c-4.4-9.9-4.5-10.1-1.5-6.5
				c1.6,2,7,7.9,11.8,13C665.4,10157.7,671.2,10167,672.6,10176.5z M640.9,10160.3c0.3,1.7,0.3,3-0.3,3c-2.1,0-13-13.1-21.2-25.7
				c-4.9-7.6-9.9-15.4-11.2-17.2c-2.8-4.1-2.8-4.9-0.1-3.5C617.9,10122.1,638.4,10149.3,640.9,10160.3z M602.5,10130.8
				c0.6,2.1-0.1,2.1-2.5,0.4c-2.9-2.2-15.4-7.2-22.2-8.8l-6.3-1.5l2.3-2.1c3.4-3.2,10.1-2.9,17.4,1
				C596.8,10122.6,601.7,10127.4,602.5,10130.8z"/>
			<path d="M834.7,10235.7c6-1.1,7.1-2.4,3.6-4.8c-1.9-1.3-1.9-1.5-0.6-5c3.2-7.9-0.4-7.7-14.2,0.8c-8.9,5.5-9.7,5.8-16.1,6.1
				c-4.9,0.2-8-0.2-12.1-1.6c-6.6-2.3-10.5-2.5-12.8-0.4c-2.3,2-2.1,3.2,1,6.1c3.2,3.2,9.7,5.9,16.1,7.1c7.4,1.2,12.5,0.4,21.5-3.7
				C825.4,10238.3,831.6,10236.2,834.7,10235.7z"/>
			<path d="M822.6,9706.4c2.7-9.6-2.8-19.2-13-22.7c-3.7-1.3-7.7-1.8-15.4-1.8h-10.4l1.3-2.5c1.8-3.3,5.7-5.9,10.9-7.4
				c5.4-1.3,13.5-0.1,20.7,3.2c2.7,1.3,5.2,1.9,5.5,1.4c1-1.5-2.4-7.4-6.8-11.6c-6.6-6.6-12.2-9-22.1-9.5
				c-10.7-0.5-16.8,1.7-24.2,8.3c-21.2,19.4-11.7,53.4,16.6,59.4c5.2,1.1,15.9,0.4,21.5-1.5C813.6,9719.6,821,9712.3,822.6,9706.4z
				 M797.9,9698.3c1.9,2.9,1.9,7.6-0.1,9.4c-2.8,2.3-4.6,2.5-7.8,1c-3.4-1.7-6.1-6.3-7.1-11.7l-0.6-3.3h3.9
				C791.2,9693.6,796,9695.6,797.9,9698.3z"/>
			<path d="M726.9,9749.9c17.7-3.2,26.6-11.9,26.4-25.7c-0.1-8.7-5.3-15.9-13.4-18.8l-3.2-1l4.7-2c18.6-8.2,17.7-32.2-1.5-41.8
				c-16.8-8.6-42.7-7-54.3,3.2c-4.7,4.1-6.3,7.6-6.3,13.5c-0.1,9.7,5.4,14.8,15.8,14.2c7.7-0.5,8.9-1.8,9-9.4c0-4,0.6-6.7,1.7-8.5
				c4.8-7.2,15.4-5.5,18.9,2.9c1.8,4.2,1.6,7.5-0.6,11.9c-2.2,4.6-5.5,6.7-11.9,7.5l-4.8,0.7v6.8v6.9l4,0.1
				c11.7,0.1,17.9,8.8,12.9,18.4c-3.2,6.5-10.7,8.8-15.9,5c-3.5-2.7-4.8-5.6-4.8-11.6c0-4.9-0.2-5.5-2.8-6.8
				c-3.9-2-11.9-1.8-15.5,0.5c-5.3,3.2-7.4,9.6-5.4,16.9c2,8.2,10.2,14.2,22.9,16.9C710.4,9751.4,718.2,9751.5,726.9,9749.9z"/>
			<path d="M731.3,10124c3.9-0.8,1.7-8.3-3.4-11.9c-7.9-5.6-28.7-3.2-36.5,4.4c-3,2.9-3.2,3.7-1.2,6.6l1.5,1.9l5.9-3.1
				c3.4-1.9,8-3.4,11-3.8c6.6-0.9,14.8,1,18.3,3.8C728.4,10123.2,730.4,10124.2,731.3,10124z"/>
			<path d="M683,9964.2c9-4.5,11.4-7.4,11.4-14.1c0-11.5-8.5-19.3-21-19.3c-7.2,0-10.7,2.2-14.6,9.2c-2.1,3.8-2.9,6.4-3.2,11.6
				c-0.6,8.6,1.1,12.7,6,15.4C666.8,9969.8,673.2,9969,683,9964.2z M679.2,9940.1c4.8,2.8,6.1,5.8,5.7,11.4c-0.4,3.9-1,5.3-3.4,7.5
				c-2.2,2-3.8,2.6-6.9,2.5c-4.8,0-7-1-9.7-3.8C656.2,9948.2,668.4,9933.5,679.2,9940.1z"/>
			<path d="M661.8,10239.2c0-3.4-2.6-3.9-8.5-1.5c-3.9,1.6-7,2-13.5,2c-10.8,0-14.1-1.2-21-7.4c-5.8-5.2-9.6-6.4-11.8-3.7
				c-1,1-0.9,1.9,0.4,4.2c1.3,2.7,1.3,2.9-0.2,2.9c-1,0-2.2,0.4-3,0.9c-2,1.3,0.2,3.5,4.6,4.8c1.9,0.6,5.1,2.2,7.1,3.8
				c4,3.2,6.1,4.2,12.5,6c5.7,1.6,17.9,1.6,21.8,0C654.8,10249.3,661.8,10242.1,661.8,10239.2z"/>
			<path d="M644.3,9682.4c0.1-15.5-13.2-27.1-31.3-27.2c-13.4-0.1-23,5.2-27.5,15.4c-2.1,4.7-2.2,6-2.5,28l-0.4,23h12.6h12.6v-7.3
				v-7.3h8.7c10.2,0.1,16.4-2.1,21.6-7.9C642.6,9694,644.3,9689.5,644.3,9682.4z M619.5,9674.3c2.6,6.2,1.3,15.9-2.6,19.1
				c-0.8,0.7-2.9,1.5-4.8,1.8c-4.3,0.7-4.7-0.2-4.1-11.8c0.5-10.1,2-14,5.7-14C616.7,9669.4,617.8,9670.4,619.5,9674.3z"/>
			<path d="M620.9,9884.4c-0.3-0.8-1.1-1.6-1.9-1.8c-1-0.4-1.1,0.7-0.8,4.3c0.6,5.4,4.7,12.9,10.6,19.3c3.9,4.2,7.5,5.3,8.5,2.6
				c0.4-1-1.3-3.2-5-7C627.5,9897.1,625,9893.3,620.9,9884.4z"/>
			<path d="M608.8,9916.2c7,2.5,4.6-2.1-7.3-13.9c-5-5-7.5-8.5-9.6-13c-3.8-8.5-4.1-8.9-5.3-9.4c-2.1-0.7-1.2,7.1,1.3,12.2
				C592.1,9900.1,604.6,9914.6,608.8,9916.2z"/>
			<path d="M575.3,9689.8v-31.5h-12.5h-12.5v25.6v25.6h-4.5h-4.6l-1.1-13.7c-1.9-22.9-4.2-30.6-10.7-36.4c-5.5-4.8-16.9-5.4-21.6-1
				c-4.3,4-4.5,5.2-1.4,8.8c1.6,1.8,3.4,4.4,4.2,5.8c3.6,7.1,6.5,21.3,8.5,42.2l0.6,6.1l6.2,1c3.4,0.6,7.3,1.2,8.6,1.4
				c4,0.8,29-0.2,35.2-1.3l5.8-1.1L575.3,9689.8L575.3,9689.8z"/>
			<path d="M499,9684v-26.7h-12.9h-13l0.2,24.5c0.2,26.1,0.1,27-4.8,31c-1.9,1.6-2.1,2.1-1.2,3.8c1.2,2.3,5,5.2,8.9,6.6
				c4.2,1.6,11.4,0.6,15.4-2c2-1.3,4.4-4.1,5.5-6.3C498.9,9710.9,499,9709.3,499,9684z"/>
			<path d="M495.3,9745.9c7-7.8,0.4-18-11.5-18c-12.4,0-18.8,9.9-11.6,18.2c1.6,1.8,4.2,3.6,5.8,4.1
				C484.7,9752.2,491.3,9750.6,495.3,9745.9z"/>
			<path d="M474.9,10235.2c5.9,2.6,9.9,1.5,9-2.4c-1.7-6.3-16.2-22.1-20.4-22.1c-3,0-3.6,1.9-2.4,7.3
				C462.6,10225.3,468.3,10232.4,474.9,10235.2z"/>
			<path d="M467.1,9683.3c1.2,0,0-5-2-8.9c-3.4-6.5-9.2-12.1-16.2-15.5c-5.8-2.9-6.5-3-17.2-3c-10.7,0-11.5,0.1-17.6,3.1
				c-15.4,7.3-26.6,25.9-26.6,44.3c0,12.1,5.7,26.3,13.8,34.4c7,7.2,14,10.9,23.4,12.5c6.4,1.1,11.1,1,17.8-0.4
				c15.3-3.2,24-12.1,22.9-23.1c-0.8-8-6.2-13.2-14-13.1c-7.6,0.2-9,1.3-9,7.5c0,6.9-1.9,11.2-5.8,13c-4.3,2-7.5,1.1-11.8-3.2
				c-9.1-9.1-10.8-29.1-3.7-43c7.5-14.7,25.7-18.3,40.9-7.9C464.5,9681.9,466.9,9683.3,467.1,9683.3z"/>
			<path d="M402.3,10257.2c1.1-0.8,1.1-1.4-0.7-4.8c-3.4-7.1-14-17.5-17.8-17.5c-3.3,0-1,10.6,3.6,16.1c1.6,1.9,4.4,4.3,6.2,5.3
				C397.6,10258.2,400.2,10258.5,402.3,10257.2z"/>
			<path d="M352.2,10039.9c4.3-2.6,3.3-34-1.6-54.3c-3.3-13.4-11.2-36.6-14.6-43.1c-3.1-5.8-7.5-10.2-9.8-9.7
				c-2.9,0.7-1,13.4,7,46.4c2.2,9.5,5.6,24.4,7.4,33.2c3.3,16.7,6,24.6,9.1,26.7C350.6,10039.8,351.8,10040.2,352.2,10039.9z"/>
		</g>
	</g>
</g>
<text transform="matrix(1 0 0 1 9.7598 140.0004)" class="st10 st11">Unique design, copywriting, adaptive layout, hosting, SEO.</text>
</svg>
